<?xml version="1.0" encoding="UTF-8" standalone="no"?>
<!-- Created with matplotlib (http://matplotlib.org/) -->

<svg
   xmlns:dc="http://purl.org/dc/elements/1.1/"
   xmlns:cc="http://creativecommons.org/ns#"
   xmlns:rdf="http://www.w3.org/1999/02/22-rdf-syntax-ns#"
   xmlns:svg="http://www.w3.org/2000/svg"
   xmlns="http://www.w3.org/2000/svg"
   xmlns:xlink="http://www.w3.org/1999/xlink"
   xmlns:sodipodi="http://sodipodi.sourceforge.net/DTD/sodipodi-0.dtd"
   xmlns:inkscape="http://www.inkscape.org/namespaces/inkscape"
   height="507.84052pt"
   version="1.1"
   viewBox="0 0 762.53748 507.84052"
   width="762.53748pt"
   id="svg2"
   inkscape:version="0.91 r13725"
   sodipodi:docname="csharp.svg">
  <metadata
     id="metadata270">
    <rdf:RDF>
      <cc:Work
         rdf:about="">
        <dc:format>image/svg+xml</dc:format>
        <dc:type
           rdf:resource="http://purl.org/dc/dcmitype/StillImage" />
        <dc:title></dc:title>
      </cc:Work>
    </rdf:RDF>
  </metadata>
  <sodipodi:namedview
     pagecolor="#ffffff"
     bordercolor="#666666"
     borderopacity="1"
     objecttolerance="10"
     gridtolerance="10"
     guidetolerance="10"
     inkscape:pageopacity="0"
     inkscape:pageshadow="2"
     inkscape:window-width="1920"
     inkscape:window-height="1027"
     id="namedview268"
     showgrid="false"
     fit-margin-top="0"
     fit-margin-left="0"
     fit-margin-right="0"
     fit-margin-bottom="0"
     inkscape:zoom="0.50032573"
     inkscape:cx="64.630953"
     inkscape:cy="190.62682"
     inkscape:window-x="-8"
     inkscape:window-y="-8"
     inkscape:window-maximized="1"
     inkscape:current-layer="svg2" />
  <defs
     id="defs4"
     style="stroke-linecap:butt;stroke-linejoin:round">
    <style
       type="text/css"
       id="style6">
*{stroke-linecap:butt;stroke-linejoin:round;}
  </style>
  </defs>
  <g
     style="stroke-linecap:butt;stroke-linejoin:round"
     id="axes_1"
     transform="translate(-67.527512,-75.406992)">
    <g
       style="stroke-linecap:butt;stroke-linejoin:round"
       id="patch_2">
      <path
         inkscape:connector-curvature="0"
         id="path14"
         style="fill:#ffffff;stroke-linecap:butt;stroke-linejoin:round"
         d="m 115.2,554.4 714.24,0 0,-478.368 -714.24,0 z" />
    </g>
    <g
       style="stroke-linecap:butt;stroke-linejoin:round"
       id="matplotlib.axis_1">
      <g
         style="stroke-linecap:butt;stroke-linejoin:round"
         id="xtick_1">
        <g
           style="stroke-linecap:butt;stroke-linejoin:round"
           id="line2d_1">
          <defs
             id="defs19">
            <path
               inkscape:connector-curvature="0"
               style="stroke:#262626;stroke-width:1.60000002;stroke-linecap:butt;stroke-linejoin:round"
               id="mda1de99063"
               d="M 0,0 0,6" />
          </defs>
          <g
             style="stroke-linecap:butt;stroke-linejoin:round"
             id="g22">
            <use
               height="100%"
               width="100%"
               id="use24"
               y="554.40002"
               xlink:href="#mda1de99063"
               x="140.67284"
               style="fill:#262626;stroke:#262626;stroke-width:1.60000002;stroke-linecap:butt;stroke-linejoin:round" />
          </g>
        </g>
        <g
           style="stroke-linecap:butt;stroke-linejoin:round"
           id="text_1">
          <!-- −10 -->
          <defs
             id="defs27">
            <path
               style="stroke-linecap:butt;stroke-linejoin:round"
               inkscape:connector-curvature="0"
               id="ArialMT-2212"
               d="m 52.828125,31.203125 -47.265625,0 0,8.203125 47.265625,0 z" />
            <path
               style="stroke-linecap:butt;stroke-linejoin:round"
               inkscape:connector-curvature="0"
               id="ArialMT-31"
               d="m 37.25,0 -8.78125,0 0,56 q -3.171875,-3.015625 -8.328125,-6.046875 -5.15625,-3.03125 -9.25,-4.546875 l 0,8.5 q 7.375,3.46875 12.890625,8.390625 5.515625,4.9375 7.8125,9.578125 l 5.65625,0 z" />
            <path
               style="stroke-linecap:butt;stroke-linejoin:round"
               inkscape:connector-curvature="0"
               id="ArialMT-30"
               d="m 4.15625,35.296875 q 0,12.703125 2.609375,20.4375 2.609375,7.75 7.75,11.9375 5.15625,4.203125 12.96875,4.203125 5.765625,0 10.109375,-2.328125 4.34375,-2.3125 7.171875,-6.6875 Q 47.609375,58.5 49.21875,52.21875 q 1.609375,-6.265625 1.609375,-16.921875 0,-12.59375 -2.59375,-20.328125 Q 45.65625,7.234375 40.5,3 35.359375,-1.21875 27.484375,-1.21875 q -10.34375,0 -16.25,7.421875 -7.078125,8.9375 -7.078125,29.09375 m 9.03125,0 q 0,-17.625 4.125,-23.46875 Q 21.4375,6 27.484375,6 q 6.0625,0 10.1875,5.859375 4.125,5.859375 4.125,23.4375 0,17.6875 -4.125,23.484375 -4.125,5.8125 -10.28125,5.8125 -6.046875,0 -9.671875,-5.125 Q 13.1875,52.9375 13.1875,35.296875" />
          </defs>
          <g
             id="g32"
             transform="matrix(0.16,0,0,-0.16,127.10283,583.0525)"
             style="fill:#262626;stroke-linecap:butt;stroke-linejoin:round">
            <use
               height="100%"
               width="100%"
               y="0"
               x="0"
               style="stroke-linecap:butt;stroke-linejoin:round"
               id="use34"
               xlink:href="#ArialMT-2212" />
            <use
               height="100%"
               width="100%"
               y="0"
               style="stroke-linecap:butt;stroke-linejoin:round"
               id="use36"
               xlink:href="#ArialMT-31"
               x="58.398438" />
            <use
               height="100%"
               width="100%"
               y="0"
               style="stroke-linecap:butt;stroke-linejoin:round"
               id="use38"
               xlink:href="#ArialMT-30"
               x="114.01367" />
          </g>
        </g>
      </g>
      <g
         style="stroke-linecap:butt;stroke-linejoin:round"
         id="xtick_2">
        <g
           style="stroke-linecap:butt;stroke-linejoin:round"
           id="line2d_2">
          <g
             style="stroke-linecap:butt;stroke-linejoin:round"
             id="g42">
            <use
               height="100%"
               width="100%"
               id="use44"
               y="554.40002"
               xlink:href="#mda1de99063"
               x="237.1998"
               style="fill:#262626;stroke:#262626;stroke-width:1.60000002;stroke-linecap:butt;stroke-linejoin:round" />
          </g>
        </g>
        <g
           style="stroke-linecap:butt;stroke-linejoin:round"
           id="text_2">
          <!-- −5 -->
          <defs
             id="defs47">
            <path
               style="stroke-linecap:butt;stroke-linejoin:round"
               inkscape:connector-curvature="0"
               id="ArialMT-35"
               d="M 4.15625,18.75 13.375,19.53125 Q 14.40625,12.796875 18.140625,9.390625 21.875,6 27.15625,6 33.5,6 37.890625,10.78125 42.28125,15.578125 42.28125,23.484375 42.28125,31 38.0625,35.34375 33.84375,39.703125 27,39.703125 q -4.25,0 -7.671875,-1.9375 -3.40625,-1.921875 -5.359375,-5 l -8.25,1.078125 6.921875,36.765625 35.609375,0 0,-8.40625 -28.578125,0 -3.84375,-19.234375 q 6.4375,4.5 13.515625,4.5 9.375,0 15.8125,-6.5 6.453125,-6.5 6.453125,-16.703125 0,-9.71875 -5.65625,-16.796875 -6.890625,-8.6875 -18.796875,-8.6875 -9.765625,0 -15.953125,5.46875 Q 5.03125,9.71875 4.15625,18.75" />
          </defs>
          <g
             id="g50"
             transform="matrix(0.16,0,0,-0.16,228.07854,583.0525)"
             style="fill:#262626;stroke-linecap:butt;stroke-linejoin:round">
            <use
               height="100%"
               width="100%"
               y="0"
               x="0"
               style="stroke-linecap:butt;stroke-linejoin:round"
               id="use52"
               xlink:href="#ArialMT-2212" />
            <use
               height="100%"
               width="100%"
               y="0"
               style="stroke-linecap:butt;stroke-linejoin:round"
               id="use54"
               xlink:href="#ArialMT-35"
               x="58.398438" />
          </g>
        </g>
      </g>
      <g
         style="stroke-linecap:butt;stroke-linejoin:round"
         id="xtick_3">
        <g
           style="stroke-linecap:butt;stroke-linejoin:round"
           id="line2d_3">
          <g
             style="stroke-linecap:butt;stroke-linejoin:round"
             id="g58">
            <use
               height="100%"
               width="100%"
               id="use60"
               y="554.40002"
               xlink:href="#mda1de99063"
               x="333.72675"
               style="fill:#262626;stroke:#262626;stroke-width:1.60000002;stroke-linecap:butt;stroke-linejoin:round" />
          </g>
        </g>
        <g
           style="stroke-linecap:butt;stroke-linejoin:round"
           id="text_3">
          <!-- 0 -->
          <g
             id="g63"
             transform="matrix(0.16,0,0,-0.16,329.27801,583.0525)"
             style="fill:#262626;stroke-linecap:butt;stroke-linejoin:round">
            <use
               height="100%"
               width="100%"
               y="0"
               x="0"
               style="stroke-linecap:butt;stroke-linejoin:round"
               id="use65"
               xlink:href="#ArialMT-30" />
          </g>
        </g>
      </g>
      <g
         style="stroke-linecap:butt;stroke-linejoin:round"
         id="xtick_4">
        <g
           style="stroke-linecap:butt;stroke-linejoin:round"
           id="line2d_4">
          <g
             style="stroke-linecap:butt;stroke-linejoin:round"
             id="g69">
            <use
               height="100%"
               width="100%"
               id="use71"
               y="554.40002"
               xlink:href="#mda1de99063"
               x="430.25372"
               style="fill:#262626;stroke:#262626;stroke-width:1.60000002;stroke-linecap:butt;stroke-linejoin:round" />
          </g>
        </g>
        <g
           style="stroke-linecap:butt;stroke-linejoin:round"
           id="text_4">
          <!-- 5 -->
          <g
             id="g74"
             transform="matrix(0.16,0,0,-0.16,425.80497,583.0525)"
             style="fill:#262626;stroke-linecap:butt;stroke-linejoin:round">
            <use
               height="100%"
               width="100%"
               y="0"
               x="0"
               style="stroke-linecap:butt;stroke-linejoin:round"
               id="use76"
               xlink:href="#ArialMT-35" />
          </g>
        </g>
      </g>
      <g
         style="stroke-linecap:butt;stroke-linejoin:round"
         id="xtick_5">
        <g
           style="stroke-linecap:butt;stroke-linejoin:round"
           id="line2d_5">
          <g
             style="stroke-linecap:butt;stroke-linejoin:round"
             id="g80">
            <use
               height="100%"
               width="100%"
               id="use82"
               y="554.40002"
               xlink:href="#mda1de99063"
               x="526.7807"
               style="fill:#262626;stroke:#262626;stroke-width:1.60000002;stroke-linecap:butt;stroke-linejoin:round" />
          </g>
        </g>
        <g
           style="stroke-linecap:butt;stroke-linejoin:round"
           id="text_5">
          <!-- 10 -->
          <g
             id="g85"
             transform="matrix(0.16,0,0,-0.16,517.88319,583.0525)"
             style="fill:#262626;stroke-linecap:butt;stroke-linejoin:round">
            <use
               height="100%"
               width="100%"
               y="0"
               x="0"
               style="stroke-linecap:butt;stroke-linejoin:round"
               id="use87"
               xlink:href="#ArialMT-31" />
            <use
               height="100%"
               width="100%"
               y="0"
               style="stroke-linecap:butt;stroke-linejoin:round"
               id="use89"
               xlink:href="#ArialMT-30"
               x="55.615234" />
          </g>
        </g>
      </g>
      <g
         style="stroke-linecap:butt;stroke-linejoin:round"
         id="xtick_6">
        <g
           style="stroke-linecap:butt;stroke-linejoin:round"
           id="line2d_6">
          <g
             style="stroke-linecap:butt;stroke-linejoin:round"
             id="g93">
            <use
               height="100%"
               width="100%"
               id="use95"
               y="554.40002"
               xlink:href="#mda1de99063"
               x="623.30768"
               style="fill:#262626;stroke:#262626;stroke-width:1.60000002;stroke-linecap:butt;stroke-linejoin:round" />
          </g>
        </g>
        <g
           style="stroke-linecap:butt;stroke-linejoin:round"
           id="text_6">
          <!-- 15 -->
          <g
             id="g98"
             transform="matrix(0.16,0,0,-0.16,614.41015,583.0525)"
             style="fill:#262626;stroke-linecap:butt;stroke-linejoin:round">
            <use
               height="100%"
               width="100%"
               y="0"
               x="0"
               style="stroke-linecap:butt;stroke-linejoin:round"
               id="use100"
               xlink:href="#ArialMT-31" />
            <use
               height="100%"
               width="100%"
               y="0"
               style="stroke-linecap:butt;stroke-linejoin:round"
               id="use102"
               xlink:href="#ArialMT-35"
               x="55.615234" />
          </g>
        </g>
      </g>
      <g
         style="stroke-linecap:butt;stroke-linejoin:round"
         id="xtick_7">
        <g
           style="stroke-linecap:butt;stroke-linejoin:round"
           id="line2d_7">
          <g
             style="stroke-linecap:butt;stroke-linejoin:round"
             id="g106">
            <use
               height="100%"
               width="100%"
               id="use108"
               y="554.40002"
               xlink:href="#mda1de99063"
               x="719.83459"
               style="fill:#262626;stroke:#262626;stroke-width:1.60000002;stroke-linecap:butt;stroke-linejoin:round" />
          </g>
        </g>
        <g
           style="stroke-linecap:butt;stroke-linejoin:round"
           id="text_7">
          <!-- 20 -->
          <defs
             id="defs111">
            <path
               style="stroke-linecap:butt;stroke-linejoin:round"
               inkscape:connector-curvature="0"
               id="ArialMT-32"
               d="M 50.34375,8.453125 50.34375,0 3.03125,0 Q 2.9375,3.171875 4.046875,6.109375 5.859375,10.9375 9.828125,15.625 13.8125,20.3125 21.34375,26.46875 q 11.671875,9.5625 15.765625,15.15625 4.109375,5.59375 4.109375,10.578125 0,5.21875 -3.75,8.796875 -3.734375,3.59375 -9.734375,3.59375 -6.34375,0 -10.15625,-3.8125 Q 13.765625,56.984375 13.71875,50.25 L 4.6875,51.171875 q 0.921875,10.109375 6.96875,15.40625 6.0625,5.296875 16.28125,5.296875 10.296875,0 16.296875,-5.71875 Q 50.25,60.453125 50.25,52 50.25,47.703125 48.484375,43.546875 46.734375,39.40625 42.65625,34.8125 38.578125,30.21875 29.109375,22.21875 21.1875,15.578125 18.9375,13.203125 q -2.234375,-2.359375 -3.703125,-4.75 z" />
          </defs>
          <g
             id="g114"
             transform="matrix(0.16,0,0,-0.16,710.93711,583.0525)"
             style="fill:#262626;stroke-linecap:butt;stroke-linejoin:round">
            <use
               height="100%"
               width="100%"
               y="0"
               x="0"
               style="stroke-linecap:butt;stroke-linejoin:round"
               id="use116"
               xlink:href="#ArialMT-32" />
            <use
               height="100%"
               width="100%"
               y="0"
               style="stroke-linecap:butt;stroke-linejoin:round"
               id="use118"
               xlink:href="#ArialMT-30"
               x="55.615234" />
          </g>
        </g>
      </g>
      <g
         style="stroke-linecap:butt;stroke-linejoin:round"
         id="xtick_8">
        <g
           style="stroke-linecap:butt;stroke-linejoin:round"
           id="line2d_8">
          <g
             style="stroke-linecap:butt;stroke-linejoin:round"
             id="g122">
            <use
               height="100%"
               width="100%"
               id="use124"
               y="554.40002"
               xlink:href="#mda1de99063"
               x="816.36157"
               style="fill:#262626;stroke:#262626;stroke-width:1.60000002;stroke-linecap:butt;stroke-linejoin:round" />
          </g>
        </g>
        <g
           style="stroke-linecap:butt;stroke-linejoin:round"
           id="text_8">
          <!-- 25 -->
          <g
             id="g127"
             transform="matrix(0.16,0,0,-0.16,807.46408,583.0525)"
             style="fill:#262626;stroke-linecap:butt;stroke-linejoin:round">
            <use
               height="100%"
               width="100%"
               y="0"
               x="0"
               style="stroke-linecap:butt;stroke-linejoin:round"
               id="use129"
               xlink:href="#ArialMT-32" />
            <use
               height="100%"
               width="100%"
               y="0"
               style="stroke-linecap:butt;stroke-linejoin:round"
               id="use131"
               xlink:href="#ArialMT-35"
               x="55.615234" />
          </g>
        </g>
      </g>
    </g>
    <g
       style="stroke-linecap:butt;stroke-linejoin:round"
       id="matplotlib.axis_2">
      <g
         style="stroke-linecap:butt;stroke-linejoin:round"
         id="ytick_1">
        <g
           style="stroke-linecap:butt;stroke-linejoin:round"
           id="line2d_9">
          <defs
             id="defs136">
            <path
               inkscape:connector-curvature="0"
               style="stroke:#262626;stroke-width:1.60000002;stroke-linecap:butt;stroke-linejoin:round"
               id="mfd064b978d"
               d="M 0,0 -6,0" />
          </defs>
          <g
             style="stroke-linecap:butt;stroke-linejoin:round"
             id="g139">
            <use
               height="100%"
               width="100%"
               id="use141"
               y="532.65601"
               xlink:href="#mfd064b978d"
               x="115.2"
               style="fill:#262626;stroke:#262626;stroke-width:1.60000002;stroke-linecap:butt;stroke-linejoin:round" />
          </g>
        </g>
        <g
           style="stroke-linecap:butt;stroke-linejoin:round"
           id="text_9">
          <!-- 0.00 -->
          <defs
             id="defs144">
            <path
               style="stroke-linecap:butt;stroke-linejoin:round"
               inkscape:connector-curvature="0"
               id="ArialMT-2e"
               d="m 9.078125,0 0,10.015625 10.015625,0 0,-10.015625 z" />
          </defs>
          <g
             id="g147"
             transform="matrix(0.16,0,0,-0.16,66.8625,538.38225)"
             style="fill:#262626;stroke-linecap:butt;stroke-linejoin:round">
            <use
               height="100%"
               width="100%"
               y="0"
               x="0"
               style="stroke-linecap:butt;stroke-linejoin:round"
               id="use149"
               xlink:href="#ArialMT-30" />
            <use
               height="100%"
               width="100%"
               y="0"
               style="stroke-linecap:butt;stroke-linejoin:round"
               id="use151"
               xlink:href="#ArialMT-2e"
               x="55.615234" />
            <use
               height="100%"
               width="100%"
               y="0"
               style="stroke-linecap:butt;stroke-linejoin:round"
               id="use153"
               xlink:href="#ArialMT-30"
               x="83.398438" />
            <use
               height="100%"
               width="100%"
               y="0"
               style="stroke-linecap:butt;stroke-linejoin:round"
               id="use155"
               xlink:href="#ArialMT-30"
               x="139.01367" />
          </g>
        </g>
      </g>
      <g
         style="stroke-linecap:butt;stroke-linejoin:round"
         id="ytick_2">
        <g
           style="stroke-linecap:butt;stroke-linejoin:round"
           id="line2d_10">
          <g
             style="stroke-linecap:butt;stroke-linejoin:round"
             id="g159">
            <use
               height="100%"
               width="100%"
               id="use161"
               y="450.45947"
               xlink:href="#mfd064b978d"
               x="115.2"
               style="fill:#262626;stroke:#262626;stroke-width:1.60000002;stroke-linecap:butt;stroke-linejoin:round" />
          </g>
        </g>
        <g
           style="stroke-linecap:butt;stroke-linejoin:round"
           id="text_10">
          <!-- 0.02 -->
          <g
             id="g164"
             transform="matrix(0.16,0,0,-0.16,66.8625,456.18572)"
             style="fill:#262626;stroke-linecap:butt;stroke-linejoin:round">
            <use
               height="100%"
               width="100%"
               y="0"
               x="0"
               style="stroke-linecap:butt;stroke-linejoin:round"
               id="use166"
               xlink:href="#ArialMT-30" />
            <use
               height="100%"
               width="100%"
               y="0"
               style="stroke-linecap:butt;stroke-linejoin:round"
               id="use168"
               xlink:href="#ArialMT-2e"
               x="55.615234" />
            <use
               height="100%"
               width="100%"
               y="0"
               style="stroke-linecap:butt;stroke-linejoin:round"
               id="use170"
               xlink:href="#ArialMT-30"
               x="83.398438" />
            <use
               height="100%"
               width="100%"
               y="0"
               style="stroke-linecap:butt;stroke-linejoin:round"
               id="use172"
               xlink:href="#ArialMT-32"
               x="139.01367" />
          </g>
        </g>
      </g>
      <g
         style="stroke-linecap:butt;stroke-linejoin:round"
         id="ytick_3">
        <g
           style="stroke-linecap:butt;stroke-linejoin:round"
           id="line2d_11">
          <g
             style="stroke-linecap:butt;stroke-linejoin:round"
             id="g176">
            <use
               height="100%"
               width="100%"
               id="use178"
               y="368.26294"
               xlink:href="#mfd064b978d"
               x="115.2"
               style="fill:#262626;stroke:#262626;stroke-width:1.60000002;stroke-linecap:butt;stroke-linejoin:round" />
          </g>
        </g>
        <g
           style="stroke-linecap:butt;stroke-linejoin:round"
           id="text_11">
          <!-- 0.04 -->
          <defs
             id="defs181">
            <path
               style="stroke-linecap:butt;stroke-linejoin:round"
               inkscape:connector-curvature="0"
               id="ArialMT-34"
               d="m 32.328125,0 0,17.140625 -31.0625,0 0,8.0625 32.671875,46.375 7.171875,0 0,-46.375 9.671875,0 0,-8.0625 -9.671875,0 0,-17.140625 z m 0,25.203125 0,32.265625 L 9.90625,25.203125 Z" />
          </defs>
          <g
             id="g184"
             transform="matrix(0.16,0,0,-0.16,66.8625,373.98919)"
             style="fill:#262626;stroke-linecap:butt;stroke-linejoin:round">
            <use
               height="100%"
               width="100%"
               y="0"
               x="0"
               style="stroke-linecap:butt;stroke-linejoin:round"
               id="use186"
               xlink:href="#ArialMT-30" />
            <use
               height="100%"
               width="100%"
               y="0"
               style="stroke-linecap:butt;stroke-linejoin:round"
               id="use188"
               xlink:href="#ArialMT-2e"
               x="55.615234" />
            <use
               height="100%"
               width="100%"
               y="0"
               style="stroke-linecap:butt;stroke-linejoin:round"
               id="use190"
               xlink:href="#ArialMT-30"
               x="83.398438" />
            <use
               height="100%"
               width="100%"
               y="0"
               style="stroke-linecap:butt;stroke-linejoin:round"
               id="use192"
               xlink:href="#ArialMT-34"
               x="139.01367" />
          </g>
        </g>
      </g>
      <g
         style="stroke-linecap:butt;stroke-linejoin:round"
         id="ytick_4">
        <g
           style="stroke-linecap:butt;stroke-linejoin:round"
           id="line2d_12">
          <g
             style="stroke-linecap:butt;stroke-linejoin:round"
             id="g196">
            <use
               height="100%"
               width="100%"
               id="use198"
               y="286.06641"
               xlink:href="#mfd064b978d"
               x="115.2"
               style="fill:#262626;stroke:#262626;stroke-width:1.60000002;stroke-linecap:butt;stroke-linejoin:round" />
          </g>
        </g>
        <g
           style="stroke-linecap:butt;stroke-linejoin:round"
           id="text_12">
          <!-- 0.06 -->
          <defs
             id="defs201">
            <path
               style="stroke-linecap:butt;stroke-linejoin:round"
               inkscape:connector-curvature="0"
               id="ArialMT-36"
               d="M 49.75,54.046875 41.015625,53.375 q -1.171875,5.171875 -3.3125,7.515625 -3.578125,3.765625 -8.796875,3.765625 -4.203125,0 -7.375,-2.34375 Q 17.390625,59.28125 14.984375,53.46875 12.59375,47.65625 12.5,36.921875 15.671875,41.75 20.265625,44.09375 q 4.59375,2.34375 9.625,2.34375 8.78125,0 14.953125,-6.46875 Q 51.03125,33.5 51.03125,23.25 51.03125,16.5 48.125,10.71875 45.21875,4.9375 40.140625,1.859375 35.0625,-1.21875 28.609375,-1.21875 17.625,-1.21875 10.6875,6.859375 3.765625,14.9375 3.765625,33.5 q 0,20.75 7.65625,30.171875 6.6875,8.203125 18.015625,8.203125 8.453125,0 13.84375,-4.734375 Q 48.6875,62.40625 49.75,54.046875 M 13.875,23.1875 q 0,-4.53125 1.921875,-8.6875 Q 17.71875,10.359375 21.1875,8.171875 24.65625,6 28.46875,6 q 5.5625,0 9.5625,4.484375 4.015625,4.5 4.015625,12.21875 0,7.421875 -3.96875,11.6875 -3.953125,4.28125 -9.953125,4.28125 -5.953125,0 -10.109375,-4.28125 Q 13.875,30.125 13.875,23.1875" />
          </defs>
          <g
             id="g204"
             transform="matrix(0.16,0,0,-0.16,66.8625,291.79267)"
             style="fill:#262626;stroke-linecap:butt;stroke-linejoin:round">
            <use
               height="100%"
               width="100%"
               y="0"
               x="0"
               style="stroke-linecap:butt;stroke-linejoin:round"
               id="use206"
               xlink:href="#ArialMT-30" />
            <use
               height="100%"
               width="100%"
               y="0"
               style="stroke-linecap:butt;stroke-linejoin:round"
               id="use208"
               xlink:href="#ArialMT-2e"
               x="55.615234" />
            <use
               height="100%"
               width="100%"
               y="0"
               style="stroke-linecap:butt;stroke-linejoin:round"
               id="use210"
               xlink:href="#ArialMT-30"
               x="83.398438" />
            <use
               height="100%"
               width="100%"
               y="0"
               style="stroke-linecap:butt;stroke-linejoin:round"
               id="use212"
               xlink:href="#ArialMT-36"
               x="139.01367" />
          </g>
        </g>
      </g>
      <g
         style="stroke-linecap:butt;stroke-linejoin:round"
         id="ytick_5">
        <g
           style="stroke-linecap:butt;stroke-linejoin:round"
           id="line2d_13">
          <g
             style="stroke-linecap:butt;stroke-linejoin:round"
             id="g216">
            <use
               height="100%"
               width="100%"
               id="use218"
               y="203.86989"
               xlink:href="#mfd064b978d"
               x="115.2"
               style="fill:#262626;stroke:#262626;stroke-width:1.60000002;stroke-linecap:butt;stroke-linejoin:round" />
          </g>
        </g>
        <g
           style="stroke-linecap:butt;stroke-linejoin:round"
           id="text_13">
          <!-- 0.08 -->
          <defs
             id="defs221">
            <path
               style="stroke-linecap:butt;stroke-linejoin:round"
               inkscape:connector-curvature="0"
               id="ArialMT-38"
               d="m 17.671875,38.8125 q -5.46875,2.015625 -8.109375,5.71875 -2.625,3.71875 -2.625,8.890625 0,7.8125 5.609375,13.125 5.625,5.328125 14.9375,5.328125 9.375,0 15.09375,-5.453125 5.71875,-5.4375 5.71875,-13.25 0,-4.984375 -2.625,-8.671875 Q 43.0625,40.828125 37.75,38.8125 q 6.59375,-2.140625 10.03125,-6.9375 3.4375,-4.78125 3.4375,-11.421875 0,-9.171875 -6.5,-15.421875 -6.484375,-6.25 -17.078125,-6.25 -10.59375,0 -17.09375,6.265625 -6.5,6.28125 -6.5,15.65625 0,6.984375 3.546875,11.6875 3.546875,4.71875 10.078125,6.421875 m -1.75,14.90625 q 0,-5.078125 3.265625,-8.3125 3.28125,-3.21875 8.5,-3.21875 5.078125,0 8.328125,3.1875 3.25,3.203125 3.25,7.84375 0,4.84375 -3.359375,8.140625 -3.34375,3.296875 -8.3125,3.296875 -5.03125,0 -8.359375,-3.234375 -3.3125,-3.21875 -3.3125,-7.703125 M 13.09375,20.65625 q 0,-3.765625 1.78125,-7.28125 Q 16.65625,9.859375 20.171875,7.921875 23.6875,6 27.734375,6 34.03125,6 38.125,10.046875 q 4.109375,4.0625 4.109375,10.3125 0,6.34375 -4.21875,10.5 -4.21875,4.15625 -10.578125,4.15625 -6.203125,0 -10.28125,-4.109375 -4.0625,-4.09375 -4.0625,-10.25" />
          </defs>
          <g
             id="g224"
             transform="matrix(0.16,0,0,-0.16,66.8625,209.59614)"
             style="fill:#262626;stroke-linecap:butt;stroke-linejoin:round">
            <use
               height="100%"
               width="100%"
               y="0"
               x="0"
               style="stroke-linecap:butt;stroke-linejoin:round"
               id="use226"
               xlink:href="#ArialMT-30" />
            <use
               height="100%"
               width="100%"
               y="0"
               style="stroke-linecap:butt;stroke-linejoin:round"
               id="use228"
               xlink:href="#ArialMT-2e"
               x="55.615234" />
            <use
               height="100%"
               width="100%"
               y="0"
               style="stroke-linecap:butt;stroke-linejoin:round"
               id="use230"
               xlink:href="#ArialMT-30"
               x="83.398438" />
            <use
               height="100%"
               width="100%"
               y="0"
               style="stroke-linecap:butt;stroke-linejoin:round"
               id="use232"
               xlink:href="#ArialMT-38"
               x="139.01367" />
          </g>
        </g>
      </g>
      <g
         style="stroke-linecap:butt;stroke-linejoin:round"
         id="ytick_6">
        <g
           style="stroke-linecap:butt;stroke-linejoin:round"
           id="line2d_14">
          <g
             style="stroke-linecap:butt;stroke-linejoin:round"
             id="g236">
            <use
               height="100%"
               width="100%"
               id="use238"
               y="121.67336"
               xlink:href="#mfd064b978d"
               x="115.2"
               style="fill:#262626;stroke:#262626;stroke-width:1.60000002;stroke-linecap:butt;stroke-linejoin:round" />
          </g>
        </g>
        <g
           style="stroke-linecap:butt;stroke-linejoin:round"
           id="text_14">
          <!-- 0.10 -->
          <g
             id="g241"
             transform="matrix(0.16,0,0,-0.16,66.8625,127.39961)"
             style="fill:#262626;stroke-linecap:butt;stroke-linejoin:round">
            <use
               height="100%"
               width="100%"
               y="0"
               x="0"
               style="stroke-linecap:butt;stroke-linejoin:round"
               id="use243"
               xlink:href="#ArialMT-30" />
            <use
               height="100%"
               width="100%"
               y="0"
               style="stroke-linecap:butt;stroke-linejoin:round"
               id="use245"
               xlink:href="#ArialMT-2e"
               x="55.615234" />
            <use
               height="100%"
               width="100%"
               y="0"
               style="stroke-linecap:butt;stroke-linejoin:round"
               id="use247"
               xlink:href="#ArialMT-31"
               x="83.398438" />
            <use
               height="100%"
               width="100%"
               y="0"
               style="stroke-linecap:butt;stroke-linejoin:round"
               id="use249"
               xlink:href="#ArialMT-30"
               x="139.01367" />
          </g>
        </g>
      </g>
    </g>
    <g
       style="stroke-linecap:butt;stroke-linejoin:round"
       id="PolyCollection_1">
      <path
         inkscape:connector-curvature="0"
         id="path252"
         style="fill:#007fff;fill-opacity:0.25;stroke-linecap:butt;stroke-linejoin:round"
         d="m 147.66545,532.65281 0,0.003 6.55868,0 6.55868,0 6.55868,0 6.55867,0 6.55868,0 6.55868,0 6.55868,0 6.55868,0 6.55867,0 6.55868,0 6.55868,0 6.55868,0 6.55867,0 6.55868,0 6.55868,0 6.55868,0 6.55868,0 6.55867,0 6.55868,0 6.55868,0 6.55868,0 6.55867,0 6.55868,0 6.55868,0 6.55868,0 6.55867,0 6.55868,0 6.55868,0 6.55868,0 6.55868,0 6.55867,0 6.55868,0 6.55868,0 6.55868,0 6.55867,0 6.55868,0 6.55868,0 6.55868,0 6.55867,0 6.55868,0 6.55868,0 6.55868,0 6.55868,0 6.55867,0 6.55868,0 6.55868,0 6.55868,0 6.55867,0 6.55868,0 6.55868,0 6.55868,0 6.55867,0 6.55868,0 6.55868,0 6.55868,0 6.55868,0 6.55867,0 6.55868,0 6.55868,0 6.55868,0 6.55867,0 6.55868,0 6.55868,0 6.55868,0 6.55867,0 6.55868,0 6.55868,0 6.55868,0 6.55867,0 6.55868,0 6.55868,0 6.55868,0 6.55868,0 6.55867,0 6.55868,0 6.55868,0 6.55868,0 6.55867,0 6.55868,0 6.55868,0 6.55868,0 6.55868,0 6.55867,0 6.55868,0 6.55868,0 6.55868,0 6.55867,0 6.55868,0 6.55868,0 6.55868,0 6.55867,0 6.55868,0 6.55868,0 6.55868,0 6.55867,0 6.55868,0 6.55868,0 6.55868,0 6.55868,0 0,-0.006 0,0 -6.55868,-0.0233 -6.55868,-0.0748 -6.55868,-0.15725 -6.55868,-0.20065 -6.55867,-0.1152 -6.55868,0.0517 -6.55868,0.11079 -6.55868,-0.052 -6.55867,-0.35717 -6.55868,-0.62977 -6.55868,-0.73509 -6.55868,-0.65008 -6.55867,-0.4594 -6.55868,-0.29035 -6.55868,-0.22409 -6.55868,-0.32376 -6.55867,-0.7805 -6.55868,-1.7467 -6.55868,-2.86708 -6.55868,-3.48446 -6.55868,-3.59108 -6.55867,-3.98448 -6.55868,-5.3153 -6.55868,-7.40681 -6.55868,-9.49158 -6.55867,-11.20921 -6.55868,-13.10791 -6.55868,-15.44878 -6.55868,-17.46232 -6.55868,-18.577 -6.55867,-19.07695 -6.55868,-19.36947 -6.55868,-19.97844 -6.55868,-21.96654 -6.55867,-25.82953 -6.55868,-30.10601 -6.55868,-32.37629 -6.55868,-31.52479 -6.55867,-28.39739 -6.55868,-24.59831 -6.55868,-20.5894 -6.55868,-15.7419 -6.55867,-10.93955 -6.55868,-7.86316 -6.55868,-5.58632 -6.55868,-2.32674 -6.55868,1.561503 -6.55867,5.040687 -6.55868,7.04904 -6.55868,6.70392 -6.55868,6.05959 -6.55867,8.25256 -6.55868,12.047 -6.55868,14.13281 -6.55868,15.49059 -6.55867,19.103 -6.55868,23.47236 -6.55868,25.08988 -6.55868,24.89204 -6.55868,25.88144 -6.55867,27.35319 -6.55868,26.86939 -6.55868,24.83008 -6.55868,23.25488 -6.55867,22.11618 -6.55868,19.58021 -6.55868,15.27225 -6.55868,10.99614 -6.55867,8.2775 -6.55868,7.15725 -6.55868,7.04518 -6.55868,7.26845 -6.55868,7.17737 -6.55867,6.537 -6.55868,5.6179 -6.55868,4.73888 -6.55868,3.90818 -6.55867,2.98315 -6.55868,2.07342 -6.55868,1.51699 -6.55868,1.38949 -6.55867,1.34498 -6.55868,1.07254 -6.55868,0.62816 -6.55868,0.25272 -6.55868,0.0859 -6.55867,0.0856 -6.55868,0.13768 -6.55868,0.17042 -6.55868,0.15057 -6.55867,0.0711 -6.55868,-0.029 -6.55868,-0.0795 -6.55868,-0.0384 -6.55868,0.0509 -6.55867,0.0997 -6.55868,0.0813 -6.55868,0.0398 -6.55868,0.0127 z"
         clip-path="url(#p7b9975a1ce)" />
    </g>
    <g
       style="stroke-linecap:butt;stroke-linejoin:round"
       id="line2d_15">
      <path
         inkscape:connector-curvature="0"
         id="path255"
         style="fill:none;stroke:#007fff;stroke-width:2.79999995;stroke-linecap:round;stroke-linejoin:round"
         d="m 147.66545,532.65281 6.55868,-0.0127 6.55868,-0.0398 6.55868,-0.0813 6.55867,-0.0997 6.55868,-0.0509 6.55868,0.0384 6.55868,0.0795 6.55868,0.029 6.55867,-0.0711 6.55868,-0.15057 6.55868,-0.17042 6.55868,-0.13768 6.55867,-0.0856 6.55868,-0.0859 6.55868,-0.25272 6.55868,-0.62816 6.55868,-1.07254 6.55867,-1.34498 6.55868,-1.38949 6.55868,-1.51699 6.55868,-2.07342 6.55867,-2.98315 6.55868,-3.90818 6.55868,-4.73888 6.55868,-5.6179 6.55867,-6.537 6.55868,-7.17737 6.55868,-7.26845 6.55868,-7.04518 6.55868,-7.15725 6.55867,-8.2775 6.55868,-10.99614 6.55868,-15.27225 6.55868,-19.58021 6.55867,-22.11618 6.55868,-23.25488 6.55868,-24.83008 6.55868,-26.86939 6.55867,-27.35319 6.55868,-25.88144 6.55868,-24.89204 6.55868,-25.08988 6.55868,-23.47236 6.55867,-19.103 6.55868,-15.49059 6.55868,-14.13281 6.55868,-12.047 6.55867,-8.25256 6.55868,-6.05959 6.55868,-6.70392 6.55868,-7.04904 6.55867,-5.040687 6.55868,-1.561503 6.55868,2.32674 6.55868,5.58632 6.55868,7.86316 6.55867,10.93955 6.55868,15.7419 6.55868,20.5894 6.55868,24.59831 6.55867,28.39739 6.55868,31.52479 6.55868,32.37629 6.55868,30.10601 6.55867,25.82953 6.55868,21.96654 6.55868,19.97844 6.55868,19.36947 6.55867,19.07695 6.55868,18.577 6.55868,17.46232 6.55868,15.44878 6.55868,13.10791 6.55867,11.20921 6.55868,9.49158 6.55868,7.40681 6.55868,5.3153 6.55867,3.98448 6.55868,3.59108 6.55868,3.48446 6.55868,2.86708 6.55868,1.7467 6.55867,0.7805 6.55868,0.32376 6.55868,0.22409 6.55868,0.29035 6.55867,0.4594 6.55868,0.65008 6.55868,0.73509 6.55868,0.62977 6.55867,0.35717 6.55868,0.052 6.55868,-0.11079 6.55868,-0.0517 6.55867,0.1152 6.55868,0.20065 6.55868,0.15725 6.55868,0.0748 6.55868,0.0233"
         clip-path="url(#p7b9975a1ce)" />
    </g>
    <g
       style="stroke-linecap:butt;stroke-linejoin:round"
       id="patch_3">
      <path
         inkscape:connector-curvature="0"
         id="path258"
         style="fill:none;stroke:#262626;stroke-width:1.25;stroke-linecap:square;stroke-linejoin:miter"
         d="m 115.2,554.4 0,-478.368" />
    </g>
    <g
       style="stroke-linecap:butt;stroke-linejoin:round"
       id="patch_4">
      <path
         inkscape:connector-curvature="0"
         id="path261"
         style="fill:none;stroke:#262626;stroke-width:1.25;stroke-linecap:square;stroke-linejoin:miter"
         d="m 115.2,554.4 714.24,0" />
    </g>
  </g>
  <defs
     id="defs263">
    <clipPath
       id="p7b9975a1ce"
       style="stroke-linecap:butt;stroke-linejoin:round">
      <rect
         height="478.36801"
         width="714.23999"
         x="115.2"
         y="76.031998"
         id="rect266"
         style="stroke-linecap:butt;stroke-linejoin:round" />
    </clipPath>
  </defs>
  <g
     transform="matrix(0.8,0,0,0.8,-26.675024,-46.830096)"
     style="font-style:normal;font-weight:normal;font-size:40px;line-height:125%;font-family:sans-serif;letter-spacing:0px;word-spacing:0px;fill:#000000;fill-opacity:1;stroke:none;stroke-width:1px;stroke-linecap:butt;stroke-linejoin:miter;stroke-opacity:1"
     id="flowRoot4398">
    <path
       d="m 769.57031,85.44387 q 0,0.429688 -0.54687,3.007813 -0.54688,2.539062 -0.78125,2.65625 -2.85157,1.71875 -9.33594,1.71875 -5.15625,0 -8.78906,-3.789063 -3.59375,-3.789062 -3.59375,-9.023437 0,-5.546875 3.71093,-9.492188 3.71094,-3.984375 9.10157,-3.984375 4.60937,0 9.49218,0.976563 -0.0781,5.234375 -0.0781,5.625 0,0.585937 -0.82031,0.585937 -0.39063,0 -0.50782,-0.195312 -0.11718,-0.507813 -0.3125,-1.015625 -0.15625,-0.546875 -0.74218,-1.367188 Q 765.82031,70.28762 765,69.701683 q -0.78125,-0.625 -2.26563,-1.054688 -1.44531,-0.46875 -3.28125,-0.46875 -3.82812,0 -6.52343,3.398438 -2.69532,3.359375 -2.69532,7.617187 0,3.164063 1.09375,5.820313 1.09375,2.65625 3.4375,4.414062 2.38282,1.71875 5.625,1.71875 3.86719,0 5.97657,-2.265625 0.54687,-0.585937 0.9375,-1.523437 0.42968,-0.976563 0.625,-1.601563 0.23437,-0.664062 0.35156,-0.664062 0.23437,0 0.54687,0.07813 0.35157,0.07813 0.54688,0.15625 l 0.19531,0.117187 z"
       style="font-style:normal;font-variant:normal;font-weight:normal;font-stretch:normal;font-family:'Crimson Text';-inkscape-font-specification:'Crimson Text';stroke-linecap:butt;stroke-linejoin:round"
       id="path6852" />
    <path
       d="m 782.1875,91.654808 q 0,0 -0.11719,0.15625 -0.23437,0.195312 -1.05469,0.195312 l -0.50781,0 q -0.23437,0 -0.39062,-0.07813 Q 780,91.811058 780,91.732933 l 0,-0.07813 0.85937,-5.898438 -3.67187,0 -0.85938,5.898438 q 0,0.03906 -0.0391,0.07813 -0.0391,0.03906 -0.0781,0.07813 0,0.03906 -0.0781,0.07813 -0.0391,0 -0.15625,0.03906 -0.0781,0 -0.19531,0.03906 -0.11719,0 -0.3125,0.03906 -0.15625,0 -0.35156,0 l -0.50782,0 q -0.23437,0 -0.39062,-0.07813 -0.11719,-0.117187 -0.11719,-0.195312 l -0.0391,-0.07813 0.89844,-5.898438 -3.35938,0 q -0.23437,0 -0.23437,-0.390625 0,-0.546875 0.3125,-1.601562 0.0391,-0.117188 0.0781,-0.15625 0.0781,-0.03906 0.15625,-0.03906 l 0.0391,0 3.35938,0 0.46875,-3.359375 -4.17969,0 q -0.23437,-0.03906 -0.23437,-0.429687 0,-0.546875 0.3125,-1.601563 0.0391,-0.117187 0.0781,-0.15625 0.0781,-0.03906 0.15625,-0.03906 l 0.0391,0 4.17969,0 0.9375,-6.09375 q 0.35156,-0.351563 1.83594,-0.351563 0.23437,0 0.3125,0.117188 0.11719,0.07813 0.11719,0.15625 l -0.0391,0.07813 -0.89843,6.09375 3.67187,0 0.9375,-6.09375 q 0.35156,-0.351563 1.83594,-0.351563 0.23437,0 0.3125,0.117188 0.11719,0.07813 0.11719,0.15625 l -0.0391,0.07813 -0.9375,6.09375 3.20313,0 q 0.0391,0 0.0781,0 0.0391,-0.03906 0.11719,0.03906 0.0781,0.07813 0.0781,0.234375 0,0.546875 -0.35157,1.679688 l -0.23437,0.273437 -3.24219,0 -0.50781,3.359375 4.0625,0 q 0.0391,0 0.0781,0 0.0391,-0.03906 0.11719,0.03906 0.0781,0.07813 0.0781,0.234375 0,0.546875 -0.35157,1.679687 -0.0391,0.117188 -0.11718,0.195313 -0.0391,0.03906 -0.0781,0.03906 l -0.0391,0 -4.0625,0 -0.9375,5.898438 z m -0.9375,-8.085938 0.46875,-3.359375 -3.67188,0 -0.50781,3.359375 3.71094,0 z"
       style="font-style:normal;font-variant:normal;font-weight:normal;font-stretch:normal;font-family:'Crimson Text';-inkscape-font-specification:'Crimson Text';stroke-linecap:butt;stroke-linejoin:round"
       id="path6854" />
    <path
       d="m 803.94531,66.967308 q 1.75781,0 6.09375,-0.15625 4.33594,-0.15625 6.52344,-0.15625 0.15625,1.132812 0.58594,3.007812 0.46875,1.835938 0.54687,2.304688 -0.19531,0.195312 -0.70312,0.195312 -0.50782,0 -0.54688,-0.273437 -0.58594,-2.148438 -1.64062,-2.734375 -1.05469,-0.625 -2.89063,-0.625 l -2.61719,0 q -3.35937,0 -3.4375,0.507812 -0.19531,0.9375 -0.19531,3.28125 l 0,6.25 q 0,0.234375 1.67969,0.234375 l 2.07031,0 q 1.09375,0 1.5625,0 0.50781,0 1.05469,-0.15625 0.54687,-0.15625 0.70312,-0.195312 0.15625,-0.03906 0.39063,-0.507813 0.27344,-0.46875 0.3125,-0.664062 0.0391,-0.234375 0.27344,-1.132813 0.0391,-0.273437 0.58593,-0.273437 0.46875,0 0.66407,0.195312 l 0,7.382813 q -0.15625,0.15625 -0.625,0.15625 -0.50782,0 -0.625,-0.3125 -0.27344,-1.054688 -0.46875,-1.5625 -0.19532,-0.546875 -0.3125,-0.625 -0.0781,-0.117188 -0.3125,-0.273438 -0.50782,-0.3125 -4.14063,-0.3125 -2.8125,0 -2.8125,0.351563 l 0,6.054687 q 0,2.539063 0.35156,3.554688 0.11719,0.390625 2.65625,0.390625 l 1.875,0 q 3.63282,0 4.92188,-0.664063 0.58594,-0.3125 1.28906,-1.367187 0.74219,-1.09375 1.17188,-2.578125 0.0781,-0.234375 0.54687,-0.234375 0.74219,0 0.97656,0.234375 -0.19531,0.507812 -0.625,1.640625 -0.39062,1.09375 -0.625,1.796875 -0.23437,0.664062 -0.50781,1.5625 -0.27344,0.898437 -0.35156,1.484375 -1.99219,0 -6.28906,-0.07813 -4.29688,-0.07813 -7.03125,-0.07813 l -4.72657,0.117187 q -0.11718,-0.117187 -0.11718,-0.625 0,-0.507812 0.11718,-0.507812 0.50782,0 1.48438,-0.273438 1.01562,-0.273437 1.21094,-0.625 0.27343,-0.46875 0.27343,-3.671875 l 0,-14.765625 q 0,-2.304687 -0.27343,-3.359375 -0.11719,-0.3125 -1.17188,-0.585937 -1.01562,-0.273438 -1.52344,-0.273438 -0.15625,0 -0.15625,-0.46875 0,-0.507812 0.15625,-0.664062 2.03125,0.07813 4.64844,0.07813 z"
       style="font-style:normal;font-variant:normal;font-weight:normal;font-stretch:normal;font-family:'Crimson Text';-inkscape-font-specification:'Crimson Text';stroke-linecap:butt;stroke-linejoin:round"
       id="path6856" />
    <path
       d="m 820.85937,76.186058 q 0.0781,-0.390625 0.15625,-0.546875 3.78907,0.195312 3.90625,0.195312 0.0781,0 4.10157,-0.195312 0.0391,0.15625 0.0391,0.46875 0,0.664062 -0.11719,0.664062 -1.5625,0 -1.5625,0.664063 0,0.15625 0.19531,0.46875 l 2.53907,3.945312 q 0.27343,-0.429687 0.82031,-1.210937 0.54687,-0.820313 0.85937,-1.289063 0.35157,-0.507812 0.625,-1.054687 0.27344,-0.546875 0.27344,-0.820313 0,-0.351562 -0.46875,-0.46875 -0.42969,-0.15625 -1.01562,-0.15625 -0.54688,-0.03906 -0.625,-0.07813 -0.11719,-0.03906 -0.11719,-0.625 0,-0.351562 0.11719,-0.507812 3.98437,0.195312 4.10156,0.195312 0.11719,0 3.55469,-0.195312 0.0781,0.390625 0.0781,0.546875 0,0.585937 -0.11719,0.585937 -2.57812,0.3125 -3.39843,1.328125 l -3.75,4.882813 q -0.0781,0.117187 -0.0781,0.273437 0,0.195313 0.11719,0.429688 l 4.17969,6.171875 q 1.05468,1.5625 3.28125,1.71875 0.11718,0 0.11718,0.546875 0,0.390625 -0.15625,0.585937 -3.63281,-0.195312 -3.67187,-0.195312 -0.11719,0 -4.33594,0.195312 -0.0781,-0.390625 -0.0781,-0.507812 0,-0.625 0.11718,-0.625 1.64063,-0.117188 1.64063,-0.703125 0,-0.07813 -0.0781,-0.234375 l -2.96875,-4.6875 -2.69531,4.023437 q -0.27344,0.429688 -0.27344,0.742188 0,0.703125 1.95313,0.859375 0.11719,0 0.19531,0 0.11719,0 0.11719,0.585937 0,0.390625 -0.15625,0.546875 -3.78906,-0.195312 -3.90625,-0.195312 -0.0781,0 -3.78906,0.195312 -0.0781,-0.3125 -0.0781,-0.546875 0,-0.585937 0.15625,-0.585937 2.61719,-0.390625 3.51563,-1.640625 l 4.0625,-5.429688 q 0,-0.03906 0,-0.117187 0.0391,-0.07813 0.0391,-0.117188 0,-0.07813 -0.0781,-0.234375 l -4.02343,-5.898437 q -0.35157,-0.507813 -1.44532,-0.9375 -1.09375,-0.429688 -1.75781,-0.429688 l -0.11719,-0.585937 z"
       style="font-style:normal;font-variant:normal;font-weight:normal;font-stretch:normal;font-family:'Crimson Text';-inkscape-font-specification:'Crimson Text';stroke-linecap:butt;stroke-linejoin:round"
       id="path6858" />
    <path
       d="m 849.14062,75.561058 q 3.75,0 5.85938,2.539062 2.10937,2.5 2.10937,5.351563 0,3.75 -2.61718,6.601562 -2.61719,2.851563 -5.9375,2.851563 -0.58594,0 -1.05469,-0.03906 -0.42969,-0.03906 -0.78125,-0.15625 -0.35156,-0.07813 -0.54688,-0.15625 -0.19531,-0.07813 -0.50781,-0.195312 -0.3125,-0.15625 -0.39062,-0.195313 -0.15625,0.195313 -0.15625,0.507813 l 0,3.359375 q 0,2.265625 0.3125,3.476562 0.0781,0.273438 1.01562,0.50781 0.9375,0.27344 1.32813,0.27344 0.11718,0 0.15625,0.46875 0.0391,0.50781 -0.0391,0.66406 -3.90625,-0.19531 -4.17968,-0.19531 -0.23438,0 -4.25782,0.19531 -0.15625,-0.15625 -0.15625,-0.66406 0,-0.46875 0.15625,-0.46875 0.46875,0 1.36719,-0.27344 0.9375,-0.234372 1.01563,-0.50781 0.27343,-1.132812 0.27343,-2.734375 l 0,-16.132812 q 0,-1.523438 -0.54687,-2.109375 -0.39063,-0.46875 -0.97656,-0.625 -0.54688,-0.195313 -0.9375,-0.195313 -0.35157,0 -0.35157,-0.07813 0,-0.9375 0.23438,-0.976562 4.14062,-0.625 5.39062,-1.015625 0.0391,0 0.11719,0 0.0781,-0.03906 0.0781,-0.03906 0.11718,0 0.11718,0.234375 0,0.195313 -0.0391,0.507813 -0.0391,0.3125 -0.0391,0.351562 l 0,0.234375 q 0.54687,-0.390625 1.79687,-0.859375 1.28907,-0.507812 2.1875,-0.507812 z m -1.25,1.914062 q -1.21093,0 -1.99218,0.664063 -0.78125,0.625 -0.78125,1.835937 l 0,8.789063 q 0,1.054687 1.13281,1.796875 1.13281,0.703125 2.46094,0.703125 2.30468,0 3.67187,-2.070313 1.36719,-2.070312 1.36719,-4.648437 0,-3.28125 -1.75781,-5.15625 -1.71875,-1.914063 -4.10157,-1.914063 z"
       style="font-style:normal;font-variant:normal;font-weight:normal;font-stretch:normal;font-family:'Crimson Text';-inkscape-font-specification:'Crimson Text';stroke-linecap:butt;stroke-linejoin:round"
       id="path6860" />
    <path
       d="m 867.42187,77.00637 q -2.03125,0 -3.125,1.757813 -1.05468,1.71875 -1.05468,2.851562 0,0.273438 0.23437,0.273438 l 7.61719,0 q 0.19531,0 0.19531,-0.390625 0,-1.25 -1.05469,-2.851563 -1.05468,-1.640625 -2.8125,-1.640625 z m 0.39063,-1.445312 q 1.79687,0 3.16406,0.703125 1.36719,0.664062 2.07031,1.757812 0.74219,1.054688 1.05469,2.1875 0.35156,1.09375 0.35156,2.1875 0,0.78125 -0.23437,0.976563 -0.23438,0.15625 -0.89844,0.15625 l -9.84375,0 q -0.3125,0 -0.3125,0.195312 0,2.460938 1.48438,4.53125 1.48437,2.070313 4.29687,2.070313 0.82031,0 1.5625,-0.15625 0.74219,-0.15625 1.25,-0.351563 0.54688,-0.234375 0.89844,-0.429687 0.39062,-0.234375 0.66406,-0.429688 l 0.27344,-0.195312 q 0.23437,0 0.23437,0.507812 0,0.3125 -0.23437,0.703125 -0.78125,1.09375 -2.30469,1.992188 -1.52344,0.859375 -3.32031,0.859375 -3.24219,0 -5.58594,-2.421875 -2.30469,-2.460938 -2.30469,-5.976563 0,-4.101562 2.1875,-6.484375 2.22657,-2.382812 5.54688,-2.382812 z"
       style="font-style:normal;font-variant:normal;font-weight:normal;font-stretch:normal;font-family:'Crimson Text';-inkscape-font-specification:'Crimson Text';stroke-linecap:butt;stroke-linejoin:round"
       id="path6862" />
    <path
       d="m 886.875,75.521995 q 2.30469,0 3.04687,1.132813 0,1.367187 -0.42968,1.992187 -0.42969,0.625 -1.05469,0.625 -0.70313,0 -1.28906,-0.664062 -0.58594,-0.664063 -1.60157,-0.664063 -1.21093,0 -2.10937,1.132813 -0.89844,1.132812 -0.89844,2.382812 l 0,5.859375 q 0,2.265625 0.3125,3.476563 0.0781,0.273437 1.01563,0.546875 0.97656,0.234375 1.36718,0.234375 0.11719,0 0.15625,0.46875 0.0391,0.46875 -0.0391,0.664062 -3.90625,-0.195312 -4.21875,-0.195312 -0.23437,0 -4.25781,0.195312 -0.15625,-0.15625 -0.15625,-0.625 0,-0.507812 0.15625,-0.507812 0.46875,0 1.36719,-0.234375 0.9375,-0.273438 1.01562,-0.546875 0.27344,-1.132813 0.27344,-2.734375 l 0,-7.382813 q 0,-1.523437 -0.54688,-2.109375 -0.39062,-0.46875 -0.97656,-0.625 -0.54687,-0.195312 -0.9375,-0.195312 -0.35156,0 -0.35156,-0.07813 0,-0.9375 0.23437,-0.976563 4.14063,-0.625 5.39063,-1.015625 0.0391,0 0.11719,0 0.0781,-0.03906 0.0781,-0.03906 0.15625,0 0.19531,0.351562 0.0391,0.3125 0,0.46875 L 882.5,78.41262 q 0.70312,-1.054687 1.91406,-1.953125 1.25,-0.9375 2.46094,-0.9375 z"
       style="font-style:normal;font-variant:normal;font-weight:normal;font-stretch:normal;font-family:'Crimson Text';-inkscape-font-specification:'Crimson Text';stroke-linecap:butt;stroke-linejoin:round"
       id="path6864" />
    <path
       d="m 894.14062,70.834495 q -0.54687,-0.585937 -0.54687,-1.40625 0,-0.820312 0.54687,-1.367187 0.58594,-0.585938 1.40625,-0.585938 0.82032,0 1.36719,0.585938 0.58594,0.546875 0.58594,1.367187 0,0.820313 -0.58594,1.40625 -0.54687,0.546875 -1.36719,0.546875 -0.82031,0 -1.40625,-0.546875 z m 3.20313,16.484375 q 0,2.265625 0.3125,3.476563 0.0781,0.273437 1.01562,0.546875 0.9375,0.234375 1.32813,0.234375 0.11719,0 0.15625,0.46875 0.0391,0.46875 -0.0391,0.664062 -3.90625,-0.195312 -4.17969,-0.195312 -0.27344,0 -4.25781,0.195312 -0.15625,-0.15625 -0.15625,-0.625 0,-0.507812 0.15625,-0.507812 0.46875,0 1.36718,-0.234375 0.9375,-0.273438 1.01563,-0.546875 0.27344,-1.132813 0.27344,-2.734375 l 0,-7.382813 q 0,-1.523437 -0.54688,-2.109375 -0.39062,-0.46875 -0.97656,-0.625 -0.54688,-0.195312 -0.9375,-0.195312 -0.35156,0 -0.35156,-0.07813 0,-0.9375 0.23437,-0.976563 4.14063,-0.625 5.39063,-1.015625 l 0.0781,-0.03906 q 0.0781,0 0.11719,0 0.15625,0 0.19531,0.351562 0.0391,0.3125 0,0.46875 -0.19531,1.5625 -0.19531,2.8125 l 0,8.046875 z"
       style="font-style:normal;font-variant:normal;font-weight:normal;font-stretch:normal;font-family:'Crimson Text';-inkscape-font-specification:'Crimson Text';stroke-linecap:butt;stroke-linejoin:round"
       id="path6866" />
    <path
       d="m 909.60937,77.00637 q -2.03125,0 -3.125,1.757813 -1.05468,1.71875 -1.05468,2.851562 0,0.273438 0.23437,0.273438 l 7.61719,0 q 0.19531,0 0.19531,-0.390625 0,-1.25 -1.05469,-2.851563 -1.05468,-1.640625 -2.8125,-1.640625 z M 910,75.561058 q 1.79687,0 3.16406,0.703125 1.36719,0.664062 2.07031,1.757812 0.74219,1.054688 1.05469,2.1875 0.35156,1.09375 0.35156,2.1875 0,0.78125 -0.23437,0.976563 -0.23438,0.15625 -0.89844,0.15625 l -9.84375,0 q -0.3125,0 -0.3125,0.195312 0,2.460938 1.48438,4.53125 1.48437,2.070313 4.29687,2.070313 0.82031,0 1.5625,-0.15625 0.74219,-0.15625 1.25,-0.351563 0.54688,-0.234375 0.89844,-0.429687 0.39062,-0.234375 0.66406,-0.429688 l 0.27344,-0.195312 q 0.23437,0 0.23437,0.507812 0,0.3125 -0.23437,0.703125 -0.78125,1.09375 -2.30469,1.992188 -1.52344,0.859375 -3.32031,0.859375 -3.24219,0 -5.58594,-2.421875 -2.30469,-2.460938 -2.30469,-5.976563 0,-4.101562 2.1875,-6.484375 2.22657,-2.382812 5.54688,-2.382812 z"
       style="font-style:normal;font-variant:normal;font-weight:normal;font-stretch:normal;font-family:'Crimson Text';-inkscape-font-specification:'Crimson Text';stroke-linecap:butt;stroke-linejoin:round"
       id="path6868" />
    <path
       d="m 930.19531,75.482933 q 2.73438,0 3.82813,1.953125 1.09375,1.953125 1.09375,6.328125 l 0,3.554687 q 0,2.265625 0.3125,3.476563 0.0781,0.273437 1.01562,0.546875 0.9375,0.234375 1.32813,0.234375 0.11718,0 0.15625,0.46875 0.0391,0.46875 -0.0391,0.664062 -3.90625,-0.195312 -4.17968,-0.195312 -0.0781,0 -4.10157,0.195312 -0.15625,-0.15625 -0.15625,-0.625 0,-0.507812 0.15625,-0.507812 0.46875,0 1.28907,-0.234375 0.85937,-0.273438 0.9375,-0.546875 0.27343,-1.132813 0.27343,-2.734375 l 0,-3.90625 q 0,-3.632813 -0.9375,-4.960938 -0.9375,-1.328125 -3.04687,-1.328125 -1.25,0 -2.42188,0.9375 -1.13281,0.898438 -1.13281,1.640625 l 0,6.875 q 0,2.265625 0.3125,3.476563 0.0781,0.273437 1.01563,0.546875 0.9375,0.234375 1.32812,0.234375 0.11719,0 0.15625,0.46875 0.0391,0.46875 -0.0391,0.664062 -3.90625,-0.195312 -4.17969,-0.195312 -0.23437,0 -4.25781,0.195312 -0.15625,-0.15625 -0.15625,-0.625 0,-0.507812 0.15625,-0.507812 0.46875,0 1.36719,-0.234375 0.9375,-0.273438 1.01562,-0.546875 0.27344,-1.132813 0.27344,-2.734375 l 0,-7.382813 q 0,-1.523437 -0.54688,-2.109375 -0.39062,-0.46875 -0.97656,-0.625 -0.54687,-0.195312 -0.9375,-0.195312 -0.35156,0 -0.35156,-0.07813 0,-0.9375 0.23437,-0.976563 4.14063,-0.625 5.39063,-1.015625 0.0391,0 0.11719,0 0.0781,-0.03906 0.0781,-0.03906 0.15625,0 0.19531,0.351562 0.0391,0.3125 0,0.46875 -0.15625,1.09375 -0.15625,1.5625 0,0.15625 0.0781,0.15625 0.0391,0 0.11719,-0.07813 0.89843,-0.9375 2.42187,-1.757812 1.5625,-0.859375 2.96875,-0.859375 z"
       style="font-style:normal;font-variant:normal;font-weight:normal;font-stretch:normal;font-family:'Crimson Text';-inkscape-font-specification:'Crimson Text';stroke-linecap:butt;stroke-linejoin:round"
       id="path6870" />
    <path
       d="m 947.89062,75.561058 q 4.29688,0 5.9375,1.992187 0,2.617188 -1.44531,2.617188 -0.66406,0 -1.01562,-0.273438 -0.35157,-0.3125 -0.89844,-1.09375 -1.21094,-1.796875 -2.89063,-1.796875 -1.60156,0 -2.92968,1.523438 -1.28907,1.523437 -1.28907,4.53125 0,3.125 1.52344,5.195312 1.5625,2.070313 4.29688,2.070313 0.82031,0 1.5625,-0.15625 0.74218,-0.15625 1.25,-0.351563 0.54687,-0.234375 0.89843,-0.429687 0.39063,-0.234375 0.66407,-0.429688 l 0.27343,-0.195312 q 0.23438,0 0.23438,0.507812 0,0.3125 -0.23438,0.703125 -0.78125,1.09375 -2.30468,1.992188 -1.52344,0.859375 -3.32032,0.859375 -3.24218,0 -5.58593,-2.421875 -2.30469,-2.460938 -2.30469,-5.976563 0,-3.59375 1.95312,-6.210937 1.95313,-2.65625 5.625,-2.65625 z"
       style="font-style:normal;font-variant:normal;font-weight:normal;font-stretch:normal;font-family:'Crimson Text';-inkscape-font-specification:'Crimson Text';stroke-linecap:butt;stroke-linejoin:round"
       id="path6872" />
    <path
       d="m 963.51562,77.00637 q -2.03125,0 -3.125,1.757813 -1.05468,1.71875 -1.05468,2.851562 0,0.273438 0.23437,0.273438 l 7.61719,0 q 0.19531,0 0.19531,-0.390625 0,-1.25 -1.05469,-2.851563 -1.05468,-1.640625 -2.8125,-1.640625 z m 0.39063,-1.445312 q 1.79687,0 3.16406,0.703125 1.36719,0.664062 2.07031,1.757812 0.74219,1.054688 1.05469,2.1875 0.35156,1.09375 0.35156,2.1875 0,0.78125 -0.23437,0.976563 -0.23438,0.15625 -0.89844,0.15625 l -9.84375,0 q -0.3125,0 -0.3125,0.195312 0,2.460938 1.48438,4.53125 1.48437,2.070313 4.29687,2.070313 0.82031,0 1.5625,-0.15625 0.74219,-0.15625 1.25,-0.351563 0.54688,-0.234375 0.89844,-0.429687 0.39062,-0.234375 0.66406,-0.429688 l 0.27344,-0.195312 q 0.23437,0 0.23437,0.507812 0,0.3125 -0.23437,0.703125 -0.78125,1.09375 -2.30469,1.992188 -1.52344,0.859375 -3.32031,0.859375 -3.24219,0 -5.58594,-2.421875 -2.30469,-2.460938 -2.30469,-5.976563 0,-4.101562 2.1875,-6.484375 2.22657,-2.382812 5.54688,-2.382812 z"
       style="font-style:normal;font-variant:normal;font-weight:normal;font-stretch:normal;font-family:'Crimson Text';-inkscape-font-specification:'Crimson Text';stroke-linecap:butt;stroke-linejoin:round"
       id="path6874" />
    <path
       d="m 977.85156,76.459495 q 0.66406,0.664063 0.66406,1.640625 0,0.976563 -0.66406,1.679688 -0.66406,0.703125 -1.64062,0.703125 -0.97657,0 -1.67969,-0.703125 -0.66406,-0.703125 -0.66406,-1.679688 0,-0.976562 0.66406,-1.640625 0.70312,-0.664062 1.67969,-0.664062 0.97656,0 1.64062,0.664062 z m 0,12.695313 q 0.66406,0.664062 0.66406,1.640625 0,0.976562 -0.66406,1.679687 -0.66406,0.664063 -1.64062,0.664063 -0.97657,0 -1.67969,-0.664063 -0.66406,-0.703125 -0.66406,-1.679687 0,-0.976563 0.66406,-1.640625 0.70312,-0.703125 1.67969,-0.703125 0.97656,0 1.64062,0.703125 z"
       style="font-style:normal;font-variant:normal;font-weight:normal;font-stretch:normal;font-family:'Crimson Text';-inkscape-font-specification:'Crimson Text';stroke-linecap:butt;stroke-linejoin:round"
       id="path6876" />
    <path
       d="m 754.80469,167.51418 q 2.61718,0 4.10156,1.95313 1.52344,1.95312 1.52344,4.41406 0,1.44531 -0.50782,3.00781 -0.46875,1.52344 -1.52343,3.125 -1.01563,1.60157 -1.875,2.8125 -0.82032,1.17188 -2.30469,2.73438 -1.48438,1.5625 -2.07031,2.14844 -0.54688,0.58593 -1.79688,1.79687 -0.11719,0.19531 0.0781,0.27344 l 7.53906,0 q 1.09375,0 1.5625,-0.625 0.50781,-0.625 1.01562,-2.38281 0.15625,-0.42969 0.54688,-0.42969 0.50781,0 0.70312,0.15625 -0.9375,4.6875 -1.05468,5.46875 -0.0781,0.625 -0.78125,0.625 l -12.8125,0 q -0.15625,0 -0.3125,-0.42969 -0.11719,-0.46875 -0.11719,-0.74219 4.25781,-4.29687 7.30469,-8.90625 3.04687,-4.64843 3.04687,-7.85156 0,-2.10937 -1.05469,-3.24219 -1.05468,-1.17187 -2.77343,-1.17187 -3.24219,0 -5.19532,3.24219 -0.23437,0 -0.50781,-0.23438 -0.23437,-0.27344 -0.23437,-0.39062 0.11718,-0.46875 0.625,-1.25 0.54687,-0.82032 1.40625,-1.75782 0.89843,-0.97656 2.34375,-1.64062 1.48437,-0.70313 3.125,-0.70313 z"
       style="font-style:normal;font-variant:normal;font-weight:normal;font-stretch:normal;font-family:'Crimson Text';-inkscape-font-specification:'Crimson Text';stroke-linecap:butt;stroke-linejoin:round"
       id="path6878" />
    <path
       d="m 774.96094,184.38918 q 0,-1.99218 0.46875,-1.99218 l 0.0391,0 9.41406,-0.46875 0.0391,0 q 0.23438,0 0.23438,0.35156 0,0.85937 -0.15625,1.40625 -0.11719,0.50781 -0.23438,0.625 l -0.11718,0.0781 -9.41407,0.42969 q -0.0391,0 -0.0781,0 -0.0391,0 -0.11719,-0.11719 -0.0781,-0.11718 -0.0781,-0.3125 z"
       style="font-style:normal;font-variant:normal;font-weight:normal;font-stretch:normal;font-family:'Crimson Text';-inkscape-font-specification:'Crimson Text';stroke-linecap:butt;stroke-linejoin:round"
       id="path6880" />
    <path
       d="m 801.48437,173.21731 q -0.23437,-0.11719 -0.46875,-0.42969 -0.23437,-0.35156 -0.23437,-0.54687 0,-0.15625 0.0781,-0.23438 6.60157,-4.49219 6.75782,-4.49219 l 0.0781,0 q 0.3125,0 0.46875,0.74219 -0.39062,1.28906 -0.39062,3.67188 l 0,15.39062 q 0,2.26563 0.3125,3.47656 0.0781,0.27344 1.13281,0.54688 1.09375,0.23437 1.48437,0.23437 0.15625,0 0.15625,0.70313 0,0.35156 -0.0391,0.42969 -3.90625,-0.19532 -4.72656,-0.19532 -0.625,0 -4.53125,0.19532 -0.15625,-0.15625 -0.15625,-0.625 0,-0.50782 0.15625,-0.50782 0.50781,0 1.5625,-0.23437 1.09375,-0.27344 1.17187,-0.54688 0.23438,-0.9375 0.23438,-2.22656 l 0,-14.0625 q 0,-1.13281 -0.0781,-1.71875 -0.0781,-0.58594 -0.19531,-0.70312 -0.0781,-0.15625 -0.27344,-0.15625 -0.23437,0 -0.70312,0.23437 -0.42969,0.23438 -1.01563,0.58594 -0.58593,0.35156 -0.78125,0.46875 z"
       style="font-style:normal;font-variant:normal;font-weight:normal;font-stretch:normal;font-family:'Crimson Text';-inkscape-font-specification:'Crimson Text';stroke-linecap:butt;stroke-linejoin:round"
       id="path6882" />
    <path
       d="m 820.70312,168.25637 q 7.69532,-0.23437 9.17969,-0.54687 0.19531,0.27343 0.19531,0.82031 0,0.97656 -0.23437,2.14844 -1.01563,0.3125 -4.41406,0.42968 l -3.39844,0.15625 q -0.19531,0.0391 -0.27344,0.3125 -0.42969,2.14844 -1.13281,6.25 1.28906,-0.50781 3.67187,-0.50781 3.125,0 5.39063,2.14844 2.30469,2.14844 2.30469,5.07812 0,3.59375 -2.53907,5.9375 -2.5,2.30469 -6.32812,2.30469 -3.47656,0 -5.23438,-1.17187 -0.39062,-0.27344 -0.39062,-1.13282 0,-1.83593 1.44531,-1.83593 0.35156,0 0.70313,0.3125 0.39062,0.27343 0.82031,0.74218 0.46875,0.46875 0.78125,0.70313 1.13281,0.82031 3.125,0.82031 1.64062,0 2.92969,-1.36719 1.32812,-1.40625 1.32812,-4.29687 0,-1.01563 -0.27344,-1.91406 -0.27343,-0.89844 -0.89843,-1.75782 -0.58594,-0.89843 -1.75782,-1.40625 -1.17187,-0.50781 -2.77343,-0.50781 -2.03125,0 -3.39844,0.42969 -0.3125,-0.15625 -0.70313,-0.54688 l 1.875,-11.60156 z"
       style="font-style:normal;font-variant:normal;font-weight:normal;font-stretch:normal;font-family:'Crimson Text';-inkscape-font-specification:'Crimson Text';stroke-linecap:butt;stroke-linejoin:round"
       id="path6884" />
    <path
       d="m 848.67187,166.96731 q 0.46875,0 5.15625,-0.23438 0.0781,0.15625 0.0391,0.625 0,0.42969 -0.11719,0.42969 -0.66406,0 -1.52344,0.35156 -0.82031,0.3125 -0.82031,0.97657 0,0.42968 0.42969,1.17187 l 4.375,8.28125 q 0.19531,0.19531 0.39062,-0.0781 5.3125,-8.04688 5.3125,-9.41407 0,-0.42968 -0.78125,-0.85937 -0.78125,-0.42969 -1.91406,-0.42969 -0.15625,0 -0.15625,-0.42969 0,-0.46875 0.15625,-0.625 4.33594,0.23438 4.60937,0.23438 1.21094,0 2.5,-0.11719 1.28907,-0.11719 1.64063,-0.11719 0.0781,0.23438 0.0781,0.58594 0,0.46875 -0.15625,0.46875 -0.46875,0 -1.64062,0.35156 -1.17188,0.35157 -1.5625,0.85938 -1.48438,2.30469 -4.33594,6.99219 -2.8125,4.6875 -2.8125,5.23437 l 0,5.9375 q 0,2.42188 0.3125,3.63281 0.0781,0.27344 1.05469,0.58594 0.97656,0.27344 1.32812,0.27344 0.15625,0 0.15625,0.50781 0,0.3125 -0.0781,0.54688 -3.90625,-0.19532 -4.375,-0.19532 -0.11719,0 -4.60938,0.19532 -0.15625,-0.15625 -0.15625,-0.54688 0,-0.50781 0.15625,-0.50781 0.46875,0 1.40625,-0.27344 0.97657,-0.27344 1.09375,-0.58594 0.3125,-1.21093 0.3125,-3.75 l 0,-4.88281 q 0,-0.54687 -0.85937,-2.14844 -0.82031,-1.64062 -4.84375,-8.86718 -0.625,-1.17188 -0.97656,-1.60157 -0.3125,-0.46875 -0.9375,-0.89843 -0.42969,-0.3125 -1.28907,-0.58594 -0.85937,-0.27344 -1.25,-0.27344 -0.15625,0 -0.15625,-0.42969 0,-0.46875 0.15625,-0.625 0.625,0.0391 2.10938,0.15625 1.48437,0.0781 2.57812,0.0781 z"
       style="font-style:normal;font-variant:normal;font-weight:normal;font-stretch:normal;font-family:'Crimson Text';-inkscape-font-specification:'Crimson Text';stroke-linecap:butt;stroke-linejoin:round"
       id="path6886" />
    <path
       d="m 877.42187,177.00637 q -2.03125,0 -3.125,1.75781 -1.05468,1.71875 -1.05468,2.85157 0,0.27343 0.23437,0.27343 l 7.61719,0 q 0.19531,0 0.19531,-0.39062 0,-1.25 -1.05469,-2.85156 -1.05468,-1.64063 -2.8125,-1.64063 z m 0.39063,-1.44531 q 1.79687,0 3.16406,0.70312 1.36719,0.66407 2.07031,1.75782 0.74219,1.05468 1.05469,2.1875 0.35156,1.09375 0.35156,2.1875 0,0.78125 -0.23437,0.97656 -0.23438,0.15625 -0.89844,0.15625 l -9.84375,0 q -0.3125,0 -0.3125,0.19531 0,2.46094 1.48438,4.53125 1.48437,2.07031 4.29687,2.07031 0.82031,0 1.5625,-0.15625 0.74219,-0.15625 1.25,-0.35156 0.54688,-0.23437 0.89844,-0.42969 0.39062,-0.23437 0.66406,-0.42968 l 0.27344,-0.19532 q 0.23437,0 0.23437,0.50782 0,0.3125 -0.23437,0.70312 -0.78125,1.09375 -2.30469,1.99219 -1.52344,0.85937 -3.32031,0.85937 -3.24219,0 -5.58594,-2.42187 -2.30469,-2.46094 -2.30469,-5.97656 0,-4.10157 2.1875,-6.48438 2.22657,-2.38281 5.54688,-2.38281 z"
       style="font-style:normal;font-variant:normal;font-weight:normal;font-stretch:normal;font-family:'Crimson Text';-inkscape-font-specification:'Crimson Text';stroke-linecap:butt;stroke-linejoin:round"
       id="path6888" />
    <path
       d="m 890.89844,190.09231 q 0.66406,0.54687 1.71875,0.54687 1.05468,0 2.03125,-0.625 0.97656,-0.66406 0.97656,-1.32812 l 0,-4.02344 q -0.3125,0.15625 -1.52344,0.54688 -1.21094,0.39062 -1.91406,0.70312 -0.66406,0.27344 -1.32813,0.97656 -0.625,0.66407 -0.625,1.5625 0,1.05469 0.66407,1.64063 z m 3.67187,-14.53125 q 2.14844,0 3.08594,1.05469 0.9375,1.01562 0.9375,3.32031 l 0,9.02344 q 0,0.82031 0.42969,1.36718 0.42968,0.54688 1.17187,0.54688 0.54688,0 1.36719,-0.54688 0.15625,0 0.15625,0.3125 0,0.50782 -0.19531,0.82032 -1.60157,1.36718 -2.73438,1.36718 -0.89844,0 -1.71875,-0.74218 -0.82031,-0.74219 -1.13281,-1.5625 -0.0391,0 -0.3125,0.27343 -0.23438,0.23438 -0.66406,0.58594 -0.42969,0.3125 -1.01563,0.66406 -0.54687,0.35157 -1.32812,0.58594 -0.74219,0.23438 -1.52344,0.23438 -1.79688,0 -2.96875,-0.9375 -1.17188,-0.97657 -1.17188,-2.89063 0,-0.85937 0.42969,-1.60156 0.42969,-0.78125 1.01563,-1.25 0.58593,-0.50781 1.60156,-1.01563 1.01562,-0.50781 1.71875,-0.74218 0.74219,-0.27344 1.91406,-0.66407 1.17188,-0.39062 1.64063,-0.58593 0.35156,-0.11719 0.35156,-0.58594 l 0,-2.92969 q 0,-1.25 -0.78125,-1.91406 -0.78125,-0.70313 -1.875,-0.70313 -1.17188,0 -1.95313,0.82032 -0.78125,0.78125 -0.78125,2.07031 0,1.36719 -1.60156,1.36719 -1.09375,0 -1.52344,-0.74219 0,-1.67969 2.46094,-3.32031 2.46094,-1.67969 5,-1.67969 z"
       style="font-style:normal;font-variant:normal;font-weight:normal;font-stretch:normal;font-family:'Crimson Text';-inkscape-font-specification:'Crimson Text';stroke-linecap:butt;stroke-linejoin:round"
       id="path6890" />
    <path
       d="m 913.4375,175.522 q 2.30469,0 3.04687,1.13281 0,1.36719 -0.42968,1.99219 -0.42969,0.625 -1.05469,0.625 -0.70313,0 -1.28906,-0.66407 -0.58594,-0.66406 -1.60157,-0.66406 -1.21093,0 -2.10937,1.13281 -0.89844,1.13282 -0.89844,2.38282 l 0,5.85937 q 0,2.26563 0.3125,3.47656 0.0781,0.27344 1.01563,0.54688 0.97656,0.23437 1.36718,0.23437 0.11719,0 0.15625,0.46875 0.0391,0.46875 -0.0391,0.66407 -3.90625,-0.19532 -4.21875,-0.19532 -0.23437,0 -4.25781,0.19532 -0.15625,-0.15625 -0.15625,-0.625 0,-0.50782 0.15625,-0.50782 0.46875,0 1.36719,-0.23437 0.9375,-0.27344 1.01562,-0.54688 0.27344,-1.13281 0.27344,-2.73437 l 0,-7.38281 q 0,-1.52344 -0.54688,-2.10938 -0.39062,-0.46875 -0.97656,-0.625 -0.54687,-0.19531 -0.9375,-0.19531 -0.35156,0 -0.35156,-0.0781 0,-0.9375 0.23437,-0.97656 4.14063,-0.625 5.39063,-1.01562 0.0391,0 0.11719,0 0.0781,-0.0391 0.0781,-0.0391 0.15625,0 0.19531,0.35157 0.0391,0.3125 0,0.46875 l -0.23437,1.95312 q 0.70312,-1.05469 1.91406,-1.95312 1.25,-0.9375 2.46094,-0.9375 z"
       style="font-style:normal;font-variant:normal;font-weight:normal;font-stretch:normal;font-family:'Crimson Text';-inkscape-font-specification:'Crimson Text';stroke-linecap:butt;stroke-linejoin:round"
       id="path6892" />
    <path
       d="m 924.29687,175.522 q 0.85938,0 2.14844,0.23437 1.32813,0.19531 1.83594,0.27344 0.39062,1.79687 0.46875,3.98437 0,0.19532 -0.50781,0.19532 -0.54688,0 -0.58594,-0.27344 -0.19531,-1.09375 -1.13281,-2.07031 -0.89844,-0.97657 -2.07032,-0.97657 -2.8125,0 -2.8125,2.30469 0,0.58594 0.15625,1.05469 0.15625,0.42969 0.58594,0.85937 0.46875,0.39063 0.70313,0.58594 0.23437,0.15625 1.01562,0.625 0.82031,0.42969 1.01563,0.54688 0.15625,0.0781 0.89843,0.54687 0.78125,0.42969 1.09375,0.625 0.3125,0.19531 0.89844,0.66406 0.625,0.46875 0.89844,0.85938 0.27344,0.35156 0.50781,0.9375 0.27344,0.54687 0.27344,1.13281 0,2.30469 -1.79688,3.86719 -1.79687,1.52344 -4.21875,1.52344 -0.82031,0 -1.52343,-0.11719 -0.66407,-0.0781 -1.60157,-0.3125 -0.9375,-0.23438 -1.44531,-0.3125 -0.23437,-0.625 -0.46875,-1.95313 -0.19531,-1.32812 -0.19531,-2.10937 0.3125,-0.23438 0.46875,-0.23438 0.58594,0 0.625,0.23438 0.23437,1.17187 1.44531,2.30469 1.25,1.09375 2.69531,1.09375 1.25,0 2.03125,-0.66407 0.82032,-0.70312 0.82032,-1.99218 0,-0.66407 -0.27344,-1.21094 -0.23438,-0.58594 -0.82031,-1.01563 -0.54688,-0.46875 -1.05469,-0.74218 -0.46875,-0.3125 -1.36719,-0.78125 -0.89844,-0.46875 -1.32812,-0.74219 -3.04688,-1.75781 -3.04688,-4.17969 0,-2.10937 1.67969,-3.4375 1.71875,-1.32812 3.98437,-1.32812 z"
       style="font-style:normal;font-variant:normal;font-weight:normal;font-stretch:normal;font-family:'Crimson Text';-inkscape-font-specification:'Crimson Text';stroke-linecap:butt;stroke-linejoin:round"
       id="path6894" />
    <path
       d="m 750.11719,230.67825 q 0,5.50781 1.95312,10.19531 1.99219,4.6875 3.47656,5.42969 0.0781,0.0391 0.0781,0.19531 0,0.23437 -0.19531,0.50781 -0.15625,0.3125 -0.35157,0.3125 -0.82031,0 -2.07031,-1.32812 -1.25,-1.32813 -2.5,-3.4375 -1.21094,-2.14844 -2.07031,-5.35157 -0.85938,-3.24218 -0.85938,-6.52343 0,-3.47657 0.78125,-6.79688 0.82032,-3.32031 1.95313,-5.54687 1.17187,-2.22657 2.46094,-3.59375 1.28906,-1.36719 2.30468,-1.36719 0.19532,0 0.35157,0.35156 0.15625,0.35156 0.15625,0.58594 0,0.11719 -0.0391,0.11719 -1.95312,0.9375 -3.71093,5.78125 -1.71875,4.80468 -1.71875,10.46875 z"
       style="font-style:normal;font-variant:normal;font-weight:normal;font-stretch:normal;font-family:'Crimson Text';-inkscape-font-specification:'Crimson Text';stroke-linecap:butt;stroke-linejoin:round"
       id="path6896" />
    <path
       d="m 769.96094,225.48293 q 1.5625,0 2.57812,0.85938 1.05469,0.82031 1.44531,1.91406 2.92969,-2.77344 6.05469,-2.77344 4.92188,0 4.92188,7.5 l 0,4.33594 q 0,2.26563 0.3125,3.47656 0.0781,0.27344 1.01562,0.54688 0.9375,0.23437 1.32813,0.23437 0.11718,0 0.15625,0.46875 0.0391,0.46875 -0.0391,0.66407 -3.90625,-0.19532 -4.17968,-0.19532 -0.23438,0 -4.25782,0.19532 -0.15625,-0.15625 -0.15625,-0.625 0,-0.50782 0.15625,-0.50782 0.46875,0 1.36719,-0.23437 0.9375,-0.27344 1.01563,-0.54688 0.27343,-1.13281 0.27343,-2.5 l 0,-4.41406 q 0,-6.01562 -3.94531,-6.01562 -1.44531,0 -2.5,0.85937 -1.05469,0.82031 -1.05469,1.36719 l 0.0391,0.15625 q 0,0.15625 0,0.19531 0.15625,0.97656 0.15625,2.8125 l 0,4.41406 q 0,1.91407 0.3125,3.125 0.0781,0.27344 1.01562,0.54688 0.9375,0.23437 1.32813,0.23437 0.11718,0 0.15625,0.46875 0.0391,0.46875 -0.0391,0.66407 -3.90625,-0.19532 -4.17968,-0.19532 -0.23438,0 -4.25782,0.19532 -0.15625,-0.15625 -0.15625,-0.625 0,-0.50782 0.15625,-0.50782 0.46875,0 1.36719,-0.23437 0.9375,-0.27344 1.01563,-0.54688 0.27343,-1.13281 0.27343,-2.73437 l 0,-3.98438 q 0,-6.21093 -3.75,-6.21093 -1.17187,0 -2.38281,0.89843 -1.17187,0.85938 -1.17187,1.67969 l 0,6.875 q 0,2.26563 0.3125,3.47656 0.0781,0.27344 1.01562,0.54688 0.9375,0.23437 1.32813,0.23437 0.11718,0 0.15625,0.46875 0.0391,0.46875 -0.0391,0.66407 -3.90625,-0.19532 -4.17968,-0.19532 -0.23438,0 -4.25782,0.19532 -0.15625,-0.15625 -0.15625,-0.625 0,-0.50782 0.15625,-0.50782 0.46875,0 1.36719,-0.23437 0.9375,-0.27344 1.01563,-0.54688 0.27343,-1.13281 0.27343,-2.73437 l 0,-7.38281 q 0,-1.52344 -0.54687,-2.10938 -0.39063,-0.46875 -0.97656,-0.625 -0.54688,-0.19531 -0.9375,-0.19531 -0.35157,0 -0.35157,-0.0781 0,-0.9375 0.23438,-0.97656 4.14062,-0.625 5.39062,-1.01562 0.0391,0 0.11719,0 0.0781,-0.0391 0.0781,-0.0391 0.15625,0 0.19531,0.35157 0.0391,0.3125 0,0.46875 -0.15625,1.09375 -0.15625,1.5625 0,0.15625 0.0781,0.15625 0.0391,0 0.11719,-0.0781 0.89844,-0.9375 2.42188,-1.75781 1.5625,-0.85938 2.96875,-0.85938 z"
       style="font-style:normal;font-variant:normal;font-weight:normal;font-stretch:normal;font-family:'Crimson Text';-inkscape-font-specification:'Crimson Text';stroke-linecap:butt;stroke-linejoin:round"
       id="path6898" />
    <path
       d="m 809.02344,236.02981 q 0,0.3125 -0.39063,1.75781 -0.0391,0.11719 -0.11719,0.19531 -0.0391,0.0391 -0.0781,0.0391 l -0.0391,0 -17.38282,0 q -0.27343,0 -0.27343,-0.39063 0,-0.39062 0.35156,-1.60156 0.0391,-0.11719 0.0781,-0.15625 0.0781,-0.0391 0.11719,-0.0391 l 0.0781,0 17.34375,0 q 0.3125,0 0.3125,0.19531 z m -18.28125,-3.94531 q 0.19531,-1.79688 0.58593,-1.79688 l 17.53907,0 q 0.15625,0 0.15625,0.19531 0,0.3125 -0.39063,1.75782 -0.0391,0.11718 -0.11719,0.19531 -0.0391,0.0391 -0.0781,0.0391 l -0.0391,0 -17.38282,0 q -0.27343,0 -0.27343,-0.39062 z"
       style="font-style:normal;font-variant:normal;font-weight:normal;font-stretch:normal;font-family:'Crimson Text';-inkscape-font-specification:'Crimson Text';stroke-linecap:butt;stroke-linejoin:round"
       id="path6900" />
    <path
       d="m 825.23437,220.99075 q -0.66406,0 -1.21093,0.54687 -0.50782,0.54688 -0.74219,1.09375 -0.23438,0.54688 -0.50781,1.44531 -0.0391,0.15625 -0.54688,0.19532 -0.50781,0.0391 -0.78125,-0.0781 0.0781,-0.35156 0.54688,-2.57812 0.50781,-2.26563 0.66406,-3.28125 0.0391,-0.46875 0.625,-0.46875 l 11.28906,0 q 0.625,0 1.60156,-0.0391 0.97657,-0.0781 1.01563,-0.0781 0.27344,0 0.27344,0.35156 0,0.23438 -0.15625,0.625 -0.15625,0.35156 -0.50782,1.01563 -0.3125,0.66406 -0.46875,0.97656 l -10.27343,21.99219 q -0.11719,0.11718 -0.42969,0.11718 -0.42969,0 -0.89844,-0.39062 -0.46875,-0.42969 -0.46875,-0.70313 l 10.39063,-20.74218 -9.41407,0 z"
       style="font-style:normal;font-variant:normal;font-weight:normal;font-stretch:normal;font-family:'Crimson Text';-inkscape-font-specification:'Crimson Text';stroke-linecap:butt;stroke-linejoin:round"
       id="path6902" />
    <path
       d="M 841.91406,242.47512 Q 841.25,241.772 841.25,240.8345 q 0,-0.9375 0.66406,-1.5625 0.70313,-0.66407 1.64063,-0.66407 0.9375,0 1.5625,0.66407 0.66406,0.625 0.66406,1.5625 0,0.9375 -0.66406,1.64062 -0.625,0.66406 -1.5625,0.66406 -0.9375,0 -1.64063,-0.66406 z"
       style="font-style:normal;font-variant:normal;font-weight:normal;font-stretch:normal;font-family:'Crimson Text';-inkscape-font-specification:'Crimson Text';stroke-linecap:butt;stroke-linejoin:round"
       id="path6904" />
    <path
       d="m 857.5,241.53762 q 1.95312,0 3.08594,-1.17187 1.13281,-1.17188 1.13281,-3.16407 0,-1.13281 -0.66406,-2.22656 -0.66407,-1.13281 -1.67969,-1.99219 -1.01563,-0.85937 -1.60156,-1.25 -0.54688,-0.39062 -1.05469,-0.66406 -0.15625,-0.0781 -0.23438,-0.0781 -0.11718,0 -0.15625,0.0391 -1.64062,1.01562 -2.38281,2.30469 -0.70312,1.25 -0.70312,3.125 0,2.26562 1.28906,3.67187 1.28906,1.40625 2.96875,1.40625 z m 0,-22.69531 q -1.44531,0 -2.42188,1.25 -0.9375,1.25 -0.9375,3.28125 0,2.65625 4.0625,5 0.15625,0.0781 0.23438,0.0781 0.11719,0 0.23437,-0.0781 2.65625,-1.75781 2.65625,-4.76563 0,-1.83593 -1.09375,-3.28125 -1.05468,-1.48437 -2.73437,-1.48437 z m 0.23437,-1.36719 q 2.69532,0 4.53125,1.64063 1.875,1.60156 1.875,4.29687 0,2.96875 -4.375,5.74219 -0.27343,0.0781 0,0.23437 2.03125,1.17188 3.55469,2.96875 1.5625,1.75782 1.5625,3.71094 0,2.89063 -2.26562,4.88281 -2.22657,1.99219 -5.19532,1.99219 -3.24218,0 -5.27343,-1.75781 -1.99219,-1.75781 -1.99219,-4.60938 0,-0.50781 0.11719,-0.97656 0.11718,-0.50781 0.23437,-0.89844 0.15625,-0.39062 0.46875,-0.82031 0.3125,-0.46875 0.50781,-0.74219 0.23438,-0.3125 0.66407,-0.70312 0.42968,-0.39063 0.625,-0.54688 0.19531,-0.19531 0.70312,-0.54687 0.50781,-0.35156 0.625,-0.42969 0.15625,-0.11719 0.625,-0.42969 l 0.50781,-0.3125 q 0.19532,-0.11718 0,-0.23437 -1.52343,-0.89844 -2.77343,-2.5 -1.21094,-1.64063 -1.21094,-3.59375 0,-2.5 1.95312,-4.41406 1.95313,-1.95313 4.53125,-1.95313 z"
       style="font-style:normal;font-variant:normal;font-weight:normal;font-stretch:normal;font-family:'Crimson Text';-inkscape-font-specification:'Crimson Text';stroke-linecap:butt;stroke-linejoin:round"
       id="path6906" />
    <path
       d="m 895.15625,240.17043 q 0.0391,0 0.0781,0 0.0781,0 0.15625,0.11719 0.11719,0.11719 0.0781,0.3125 -0.0781,0.54688 -0.15625,0.89844 -0.0781,0.35156 -0.15625,0.50781 -0.0781,0.15625 -0.11719,0.23438 -0.0391,0.0391 -0.11719,0.0781 l -0.0781,0.0391 -17.5,0 q -0.0391,0 -0.0781,0 -0.0391,0 -0.11718,-0.11718 -0.0781,-0.15625 -0.0391,-0.39063 0.11719,-0.85937 0.3125,-1.48437 0.0391,-0.11719 0.0781,-0.15625 0.0781,-0.0391 0.11719,-0.0391 l 0.0781,0 17.46094,0 z M 887.5,230.8345 l 0,7.5 q 0,0.39062 -1.75781,0.625 -0.0781,0 -0.15625,0.0391 -0.0391,0 -0.0781,0 -0.19531,0 -0.19531,-0.3125 l 0,-7.77344 q 0,-0.19531 -0.23438,-0.19531 l -7.77343,0 q -0.23438,0 -0.23438,-0.39063 0,-0.54687 0.3125,-1.60156 0.0391,-0.11719 0.0781,-0.15625 0.0781,-0.0391 0.15625,-0.0391 l 0.0391,0 7.46094,0 q 0.19531,0 0.19531,-0.23438 l 0,-7.42187 q -0.0391,-0.19531 0.19531,-0.27344 1.05469,-0.3125 1.60156,-0.3125 l 0.39063,0.23438 0,7.8125 q 0,0.19531 0.15625,0.19531 l 7.8125,0 q 0.3125,0 0.3125,0.19531 0,0.3125 -0.39063,1.75781 -0.0391,0.11719 -0.11718,0.19532 -0.0391,0.0391 -0.0781,0.0391 l -0.0781,0 -7.46094,0 q -0.15625,0 -0.15625,0.11719 z"
       style="font-style:normal;font-variant:normal;font-weight:normal;font-stretch:normal;font-family:'Crimson Text';-inkscape-font-specification:'Crimson Text';stroke-linecap:butt;stroke-linejoin:round"
       id="path6908" />
    <path
       d="m 915.58594,217.51418 q 1.67968,0 3.20312,1.40625 1.5625,1.36719 1.5625,3.59375 0,1.71875 -0.85937,2.92969 -0.82032,1.17188 -2.38282,2.34375 2.07032,0.74219 3.75,2.46094 1.71875,1.71875 1.71875,4.29687 0,3.71094 -2.61718,5.97657 -2.61719,2.26562 -6.48438,2.26562 -3.32031,0 -5.07812,-1.17187 -0.39063,-0.27344 -0.39063,-1.13282 0,-1.83593 1.44531,-1.83593 0.35157,0 0.70313,0.3125 0.39062,0.27343 0.82031,0.74218 0.46875,0.46875 0.78125,0.70313 1.13281,0.82031 2.96875,0.82031 1.71875,0 3.08594,-1.32812 1.40625,-1.36719 1.40625,-4.33594 0,-2.30469 -1.48438,-3.90625 -1.48437,-1.60156 -3.47656,-1.60156 -1.44531,0 -2.53906,0.27343 -0.27344,-0.35156 -0.27344,-1.01562 0,-0.27344 0.0781,-0.39063 2.69531,-0.46875 4.29687,-1.875 1.60156,-1.40625 1.60156,-3.82812 0,-1.32813 -1.05468,-2.34375 -1.01563,-1.05469 -2.34375,-1.05469 -0.85938,0 -1.60157,0.3125 -0.70312,0.27344 -1.09375,0.58594 -0.35156,0.3125 -0.70312,0.70312 -0.35156,0.35157 -0.39063,0.39063 -0.15625,0 -0.3125,-0.35156 -0.15625,-0.39063 -0.15625,-0.66407 1.05469,-1.5625 2.38282,-2.42187 1.32812,-0.85938 3.4375,-0.85938 z"
       style="font-style:normal;font-variant:normal;font-weight:normal;font-stretch:normal;font-family:'Crimson Text';-inkscape-font-specification:'Crimson Text';stroke-linecap:butt;stroke-linejoin:round"
       id="path6910" />
    <path
       d="m 927.77344,242.47512 q -0.66407,-0.70312 -0.66407,-1.64062 0,-0.9375 0.66407,-1.5625 0.70312,-0.66407 1.64062,-0.66407 0.9375,0 1.5625,0.66407 0.66406,0.625 0.66406,1.5625 0,0.9375 -0.66406,1.64062 -0.625,0.66406 -1.5625,0.66406 -0.9375,0 -1.64062,-0.66406 z"
       style="font-style:normal;font-variant:normal;font-weight:normal;font-stretch:normal;font-family:'Crimson Text';-inkscape-font-specification:'Crimson Text';stroke-linecap:butt;stroke-linejoin:round"
       id="path6912" />
    <path
       d="m 939.02344,234.38918 q 0,2.73438 1.28906,4.84375 1.32812,2.07032 3.28125,2.07032 1.71875,0 3.00781,-1.48438 1.28906,-1.52344 1.28906,-4.02344 0,-2.65625 -1.28906,-4.375 -1.25,-1.71875 -3.71094,-1.71875 -1.05468,0 -2.03125,0.58594 -0.97656,0.54688 -1.25,1.17188 -0.54687,1.25 -0.58593,2.92968 z m 4.10156,8.4375 q -3.24219,0 -5.35156,-2.5 -2.10938,-2.53906 -2.10938,-5.85937 0,-3.04688 1.21094,-5.85938 1.21094,-2.8125 3.24219,-4.92187 2.07031,-2.14844 4.41406,-3.71094 2.38281,-1.60156 5.03906,-2.65625 0.23438,0 0.54688,0.42969 0.35156,0.42969 0.35156,0.625 -3.94531,1.71875 -6.71875,4.17969 -2.73438,2.42187 -3.78906,6.28906 -0.0781,0.39062 0.0391,0.39062 0.0781,-0.0391 0.11719,-0.0781 0.54687,-0.42969 1.95312,-0.9375 1.44531,-0.50781 2.61719,-0.50781 2.73437,0 4.57031,2.30468 1.875,2.26563 1.875,4.96094 0,3.24219 -2.42187,5.54688 -2.42188,2.30468 -5.58594,2.30468 z"
       style="font-style:normal;font-variant:normal;font-weight:normal;font-stretch:normal;font-family:'Crimson Text';-inkscape-font-specification:'Crimson Text';stroke-linecap:butt;stroke-linejoin:round"
       id="path6914" />
    <path
       d="m 960.11719,230.67825 q 0,-5.66407 -1.75782,-10.46875 -1.71875,-4.84375 -3.67187,-5.78125 -0.0391,0 -0.0391,-0.11719 0,-0.23438 0.15625,-0.58594 0.15625,-0.35156 0.35156,-0.35156 1.01562,0 2.30469,1.36719 1.28906,1.36718 2.42187,3.59375 1.17188,2.22656 1.95313,5.54687 0.82031,3.32031 0.82031,6.79688 0,3.28125 -0.85938,6.52343 -0.85937,3.20313 -2.10937,5.35157 -1.21094,2.10937 -2.46094,3.4375 -1.25,1.32812 -2.07031,1.32812 -0.19531,0 -0.39063,-0.3125 -0.15625,-0.27344 -0.15625,-0.50781 0,-0.15625 0.0781,-0.19531 1.48437,-0.74219 3.4375,-5.42969 1.99219,-4.6875 1.99219,-10.19531 z"
       style="font-style:normal;font-variant:normal;font-weight:normal;font-stretch:normal;font-family:'Crimson Text';-inkscape-font-specification:'Crimson Text';stroke-linecap:butt;stroke-linejoin:round"
       id="path6916" />
  </g>
</svg>
